<svg class="main-svg" xmlns="http://www.w3.org/2000/svg" xmlns:xlink="http://www.w3.org/1999/xlink" width="1100" height="600" style="background: rgb(255, 255, 255) none repeat scroll 0% 0%;"><defs id="defs-fd45ac"><g class="clips"><clipPath id="clipfd45acgeo"><rect x="99.43389638637768" y="10.000000000000114" width="799.1322072272446" height="589.9999999999999"></rect></clipPath></g><g class="gradients"></g></defs><g class="bglayer"></g><g class="draglayer"></g><g class="layer-below"><g class="imagelayer"></g><g class="shapelayer"></g></g><g class="cartesianlayer"></g><g class="polarlayer"></g><g class="ternarylayer"></g><g class="geolayer"><g class="geo geo" clip-path="url(#clipfd45acgeo)"><g class="layer bg"><rect style="pointer-events: all; fill: rgb(255, 255, 255); fill-opacity: 1; cursor: auto;" x="99.43389638637768" y="10.000000000000114" width="799.1322072272446" height="589.9999999999999"></rect></g><g class="layer countries"><path style="fill: none; stroke-miterlimit: 2; stroke: rgb(68, 68, 68); stroke-opacity: 1; stroke-width: 1px;" d="M546.4873917348073,472.5517313562452L545.4142374593849,476.21459100907845L546.730297716801,480.74497005337207L550.313332989214,483.34752822775357L550.2213669645078,486.23925953262193L547.4855896666385,487.78151622855165L547.0155033342504,491.25159379439367L543.1808566613769,496.4567101431567L541.7013751025206,495.6855817951918L541.5057437856307,493.2758057078015L536.6724736341143,489.709337098464L535.8251300883068,484.6006117931966L536.4773991273473,477.2748924875301L537.5717175020906,473.99759700867935L536.0913078987958,472.26255822575837L535.5029618842906,468.888871703412L539.0710241837536,463.5873643111534L539.640182258099,465.6115762245613L541.9071959407032,464.6476657896051L543.7916922149387,467.5393970944735L545.7976605958427,468.6960896164208ZM515.2398854178156,405.3671740398046L514.6845528237509,409.80116204060266L510.01255836561234,409.80116204060266L511.6592949326493,412.11454708449736L508.94752042151015,419.0547022161813L507.3901201595363,420.78974099910226L500.1561411078489,421.0789141295892L495.9754478259462,423.4886902169793L489.10869167083365,422.71756186901445L477.26981495867875,419.9222216076418L475.45134917650273,416.162970911313L467.23568631721463,418.09079178122516L466.23379181246355,420.115003694633L461.26828597752626,418.5727469987033L457.02825388943376,418.28357386821637L453.34905132252607,416.3557529983042L454.67343219078475,413.7531948239227L454.4207328720415,411.8253739540105L456.8832195685969,411.2470276930368L461.05474743699097,414.2351500414008L462.22482548265924,411.34341873653244L469.4908265056395,411.8253739540105L475.4534448691562,409.89755308409826L479.38010041403,410.2831172580807L481.9575122731423,412.4037202149841L482.7156228072575,410.5722903885676L481.59239025781795,403.63213525688354L484.55949843181196,402.282660647945L487.5444490739474,397.3667174296688L493.5751666937743,400.8367949955109L498.2268790949218,396.4028069947128L501.09758963665774,395.6316786467479L507.4421615982656,398.90897412559866L511.2723190761403,398.33062786462494L515.0489211381318,400.3548397780328L514.3959739476969,401.7043143869714ZM404.7618740871811,370.85918046837594L410.66804949909505,371.72669985983646L418.2523380631139,369.5097058594374L423.1189294563846,374.2328669907223L427.45091291535766,376.73903412160826L426.20435447382016,383.968362383779L424.06743133762217,384.3539265577615L422.9359985384334,390.3301712544893L416.04107996947357,385.5106190797088L411.83160956891385,386.2817474276736L406.45618470711395,381.26941316590194L402.89870500073675,376.93181620859946L399.12257207472067,376.73903412160826L398.17762142522514,372.9797834252794ZM563.2459876800627,447.104495873404L565.7975280786768,451.44209283070643L569.0273301555144,450.67096448274157L575.5922764692041,452.309612222167L587.9585029762097,452.88795848314066L592.0085581695084,450.18900926526356L601.7986563752777,447.6828421343777L608.0380887880208,451.5384838742021L613.0946162647136,452.6951763961494L608.924037250512,457.12916439694754L606.2581027062048,464.8404478765964L609.2162924499526,470.9130836168199L601.8979547849336,469.46721796438567L593.413512428257,472.8409044867321L593.4748166146849,478.14241187899063L585.7781275735197,479.2027133574423L579.672182143677,475.4434626611136L572.9575424240867,478.4315850094775L566.6652489209453,478.046020835495L565.8502954664582,471.00947466031545L561.4796455661997,467.5393970944735L562.8876023050249,466.09353144203925L561.9357767790246,464.7440568331008L563.2100065192178,461.3703703107544L566.3771995749274,457.99668378840806L562.144571681046,453.3699137006187L561.2762236288023,449.51427196079425ZM532.5456894604624,440.3571228287112L535.5576481101111,440.3571228287112L533.526373280961,445.0802839599962L537.674671039782,449.1287077868118L536.4773702033262,454.2374330920792L534.5146865340328,454.7193883095573L532.9376810317498,455.68329874451337L530.2416053557632,458.0930748319036L529.1072737401603,464.0693195286315L521.6061945825716,460.02089570181585L518.3750096149698,455.49051665752216L515.0972237134961,453.1771316136275L511.2110642676927,449.1287077868118L509.380535256196,445.851412307961L505.2889073264326,440.83907804618934L507.004155448026,436.40509004539115L510.0231723841426,438.81486613278145L511.81535587391994,436.5978721323824L515.7222965932937,436.40509004539115L522.8820836567352,438.14012882831213L528.67121296743,437.9473467413209ZM566.2607085104421,343.38773307212693L573.9012765217176,343.48412411562254L582.3201811835,339.43570028880686L583.8400712221546,333.45945559207894L590.0835446521374,329.989378026237L589.0851766576952,325.1698258514565L593.6925380023313,323.33839602503986L601.789543322036,319.2899721982243L610.2046677238685,321.89253037260573L611.5361209997191,324.5914795904829L615.5257003531849,323.33839602503986L623.4128265638451,325.8445631559257L624.6083692228747,330.8568974176975L623.1460587117858,333.74862872256585L628.7020962445586,340.7851748977454L632.0724745273451,342.7129957676576L631.7361170675878,344.64081663756986L637.2614797223935,346.5686375074821L639.8056408011024,349.46036881235034L636.9241822286375,351.7737538562451L630.4358517952694,351.3881896822626L629.0075261268648,352.3521001172187L631.1642745934433,355.91856872655626L633.6732960110007,362.8587238582403L626.8558644948507,363.4370701192139L624.5729316625267,365.75045516310854L624.4665071708766,371.14835359886274L621.1308854391572,370.1844431639066L613.9088718797141,370.66639838138474L611.637787873755,368.1602312504989L608.7130971714317,369.9916610769154L605.6419279759268,368.4494043809857L599.2529902839641,368.2566222939945L590.1264842450445,365.65406411961305L581.9849046451161,364.88293577164814L575.7744044850893,365.07571785863934L571.4871269274662,367.9674491635077L567.6668207660147,368.4494043809857L567.3253538180844,363.6298522062051L564.6008256550172,358.713908987929L569.3327587883689,356.49691498752986L569.22067345696,352.2557090737231L566.8200990812553,348.1108942034118ZM454.4207328720415,411.8253739540105L454.67343219078475,413.7531948239227L453.34905132252607,416.3557529983042L457.02825388943376,418.28357386821637L461.26828597752626,418.5727469987033L460.511618349075,423.00673499950136L456.816511783552,424.74177378242234L450.72152053946434,423.39229917348376L448.82088955357807,427.72989613078624L444.84412271157987,428.1154603047687L443.46973085107857,426.3804215218477L438.7237695149328,430.0432811746809L434.6626446567141,430.525236392159L431.1428563864519,428.2118513482643L428.4610457968184,423.58508126047496L424.4417036575165,425.22372899990035L424.7712431396479,420.40417682511986L431.02221626636634,414.33154108489634L430.8202254797799,411.6325918670193L434.5736992495164,412.59650230197536L436.93507632786344,410.76507247555884L443.9067294382331,410.8614635190544L445.67786174391114,408.54807847515974ZM515.0489211381318,400.3548397780328L511.2723190761403,398.33062786462494L507.4421615982656,398.90897412559866L501.09758963665774,395.6316786467479L498.2268790949218,396.4028069947128L493.5751666937743,400.8367949955109L487.5444490739474,397.3667174296688L482.9439333807751,392.73994734187954L478.78447352671276,390.137389167498L477.9572281865972,385.6070101232043L476.60683696292944,382.42610568784926L482.5464559866002,380.1127206439546L485.55809035754004,377.51016246957306L491.3958811979452,375.3895595126696L493.43989411186254,373.3653475992618L495.54512833158344,374.6184311647048L499.1090278100363,373.4617386427575L502.9693221504054,376.93181620859946L509.01935082060817,377.79933560005986L508.5255635887069,380.7874579484238L512.9957487302374,383.00445194882286L514.1410128058474,380.2091116874502L519.7014207586662,381.46219525289314L520.545766748496,384.8358817752395L526.5538955352453,385.4142280362131L530.4523736151666,390.7157354284717L527.9567360354334,390.7157354284717L526.7384150187513,392.64355629838394L524.9082997166715,393.12551151586206L524.3537415634308,395.5352876032523L522.8144870129048,396.0172428207303L522.6072527045378,397.07754429918214L519.8202309319896,398.13784577763374L516.2071378734041,397.94506369064254ZM459.0137156143475,331.9171988961492L459.04687413730437,336.0620137664605L467.02099269396757,338.56818089734634L466.79892041366725,342.4238226371708L474.88944112365647,340.399610723763L479.41465527575093,337.411488375399L488.2716064214185,341.6526942892059L492.034311202647,345.122771855048L493.8744438917585,350.52067029080206L491.6389549140732,353.4124015956704L494.50116135053725,357.1716522919992L496.50791197185254,362.9551149017359L495.8509098091904,366.61797455456906L499.1090278100363,373.4617386427575L495.54512833158344,374.6184311647048L493.43989411186254,373.3653475992618L491.3958811979452,375.3895595126696L485.55809035754004,377.51016246957306L482.5464559866002,380.1127206439546L476.60683696292944,382.42610568784926L477.9572281865972,385.6070101232043L478.78447352671276,390.137389167498L482.9439333807751,392.73994734187954L487.5444490739474,397.3667174296688L484.55949843181196,402.282660647945L481.59239025781795,403.63213525688354L482.7156228072575,410.5722903885676L481.9575122731423,412.4037202149841L479.38010041403,410.2831172580807L475.4534448691562,409.89755308409826L469.4908265056395,411.8253739540105L462.22482548265924,411.34341873653244L461.05474743699097,414.2351500414008L456.8832195685969,411.2470276930368L454.4207328720415,411.8253739540105L445.67786174391114,408.54807847515974L443.9067294382331,410.8614635190544L436.93507632786344,410.76507247555884L438.2183341624712,403.15018003940554L442.57994832207373,395.8244607337391L430.87460423185564,393.89663986382686L427.0882809517004,391.1012996024542L427.78971658247985,386.3781384711692L426.20435447382016,383.968362383779L427.45091291535766,376.73903412160826L426.54849177474387,365.46128203262185L431.3954723549657,365.46128203262185L433.58033706775603,361.41285820580606L435.9783464110135,351.6773628127495L434.6195452246334,348.0145031599162L436.28198193495405,345.7975091595172L442.94956872148583,345.21916289854346L444.2985795688693,347.5325479424381L449.90208509525485,342.2310405501795L448.17747884568024,338.27900776685954L448.02458299977104,332.20637202663613L453.9358291935438,333.55584663557454ZM478.4479933784972,319.8683184591979L480.9112731429029,325.2662168949521L476.0543657693796,333.94141080955706L467.95169013989124,327.86877506933365L466.91724208895334,323.43478706853557ZM457.03428853682243,326.7120825473862L459.0137156143475,331.9171988961492L453.9358291935438,333.55584663557454L448.02458299977104,332.20637202663613L445.0514562358507,326.2301273299082L445.2447314710526,315.2415483714086L446.61122157403776,312.34981706654025L448.9601533092669,309.1689126311851L455.8155037544133,308.4941753267158L458.61737444621525,305.6024440218474L464.8843802122201,302.51793062998786L464.5408663715127,308.0122201092378L462.1485832372084,311.57868871857534L462.9816084033075,314.5668110669393L467.1479165223459,316.109067762869L465.16153808506994,320.1574915896847L462.8710450081749,319.0007990677374ZM294.97870701599527,472.26255822575837L296.11406639928356,464.6476657896051L293.03667087038644,460.02089570181585L305.7209236899225,452.309612222167L315.85730010851785,454.2374330920792L327.15734418087385,454.1410420485836L335.9639353689916,455.97247187500017L342.9830416360995,455.3941256140265L356.60717312232066,455.77968978800897L359.68348272505796,459.92450465832025L374.9940562799256,464.7440568331008L378.16414446386756,462.4306717892061L387.4304742841178,467.3466150074823L397.32944429079913,465.90074935504805L397.50927120039853,472.16616718226277L389.0765559587288,479.299104400938L378.08237294595847,481.516098401337L377.1290595563154,485.1789580541702L371.59758112656107,491.05881170740247L367.8245345893122,499.83039666550303L370.8420597154947,505.90303240572655L365.6367138873949,510.72258458050703L363.4182175404099,517.662739712191L356.76972582163,519.7833426690945L350.24386531973823,528.072972409717L339.22510180673765,528.1693634532127L330.9571277680704,527.9765813662214L325.2547802813002,531.7358320625501L321.71499921788615,535.7842558893658L317.46290609296693,534.9167364979053L314.4871681096878,531.3502678885677L312.4798740989527,525.1812411048486L304.4889800060107,523.4462023219277L304.0374907308378,519.9761247560857L307.5207452385343,515.92770092927L308.8952854911002,513.0359696244018L306.17826068791544,509.8550651890465L309.02563354630377,502.81851901386693L306.1165347543375,496.360319099661L309.8865226077079,495.49279970820055L310.5856401456857,490.38407440293315L312.0894268133379,488.84181770700343L312.88612139675155,480.55218796638087L317.0265622209728,477.564065618017L315.0714237562287,472.26255822575837L310.13704620179374,471.87699405177597L308.57475780476403,473.2264686607145L303.6068104868068,473.2264686607145L301.9130410991014,468.02135231195155L298.3462781989251,469.5636090078813ZM570.7709110745927,301.84319332551866L571.3409837197081,295.57777549830394L568.5785684374605,296.92725010724257L563.5553666221209,293.0716083674181L562.5711026944423,286.902581583699L572.0793416644735,283.914459235335L581.5658727218321,282.3722025394054L589.8986104748878,284.20363236582193L597.7439633294513,283.8180681918394L598.9860817055697,285.74588906175177L594.0106438909643,291.9149158454709L596.9955649036851,301.84319332551866L593.9716919839842,305.3132708913606L587.5669012775668,305.216879847865L580.6576742736381,301.26484706454505L577.2577142556792,300.011763499102ZM593.219585508063,181.16160686901412L592.90149996865,188.68010826167176L604.3606767264915,195.81304548034677L598.6971731948885,203.81350209048253L608.2220149108977,216.05516461442517L604.2743665082024,225.21231374650813L611.6073635890074,233.2127703566439L609.33118615841,240.1529254883278L620.9353694122634,247.47864479399425L618.7681704404563,252.97293427324405L612.4053348784705,259.14196105696317L604.8769079604865,265.9408029559247L597.582124358599,272.8294892333398L583.9304607360102,273.69700862480033L570.9091728977897,277.6490414081204L558.6806946380345,279.86603540851945L554.0594507600033,273.98618175528725L546.5916095420802,270.5161041894453L547.8673883684859,260.0094804484237L543.8730760460652,250.273985055367L547.1486963546731,244.1049582716479L553.4532945011788,237.35758522695517L561.3584104252358,231.4779324154655L569.507437717085,225.69426896398625L574.1777373806079,223.4772749635872L573.0829555422545,218.94689591929352L562.8018077997644,213.93456165752173L560.1014646517857,209.69335574371485L558.9154406648039,193.21048730596533L547.6208005244262,185.98115904379472L538.1210181657669,180.679651651536L542.1058262039038,177.88431139016336L550.1237606977685,183.57138295640448L559.1546390752808,182.99303669543065L566.7782893826981,185.5955948698122L573.0490854162681,180.87243373852732L575.8167934358163,172.96836817188716L586.1057857134176,169.4018995625496L595.3629299651003,173.64310547635637ZM446.1269570770702,464.2621016156227L451.61787592457733,460.21367778880705L452.87526975819077,469.3708269208901L449.87702710192315,477.6604566615126L446.09832721445935,475.4434626611136L444.28077723664563,468.2141343989428ZM422.9359985384334,390.3301712544893L424.73103140449473,391.2940816894454L427.0882809517004,391.1012996024542L430.87460423185564,393.89663986382686L442.57994832207373,395.8244607337391L438.2183341624712,403.15018003940554L436.93507632786344,410.76507247555884L434.5736992495164,412.59650230197536L430.8202254797799,411.6325918670193L431.02221626636634,414.33154108489634L424.7712431396479,420.40417682511986L424.4417036575165,425.22372899990035L428.4610457968184,423.58508126047496L431.1428563864519,428.2118513482643L430.7398663523269,431.2963647401238L433.01201118339634,435.2483975234439L430.048888816546,438.5256930022947L431.9681236322226,446.8153227429172L436.46050015507666,448.16479735185567L435.3391896538917,452.88795848314066L427.49525043994004,458.8642031798685L410.9779702236403,455.97247187500017L398.53302887211987,459.44254944084213L397.32944429079913,465.90074935504805L387.4304742841178,467.3466150074823L378.16414446386756,462.4306717892061L374.9940562799256,464.7440568331008L359.68348272505796,459.92450465832025L356.60717312232066,455.77968978800897L361.3391259071721,449.32148987380305L364.30911731486265,428.0190692612731L356.5870506981574,416.7413171722866L350.89735469353474,411.34341873653244L338.62864078479834,407.1986038662211L338.4834520447598,399.39092934307666L349.29097933861806,397.07754429918214L362.7855271094119,399.8728845605548L361.1250722406482,387.72761308010786L368.4849017680348,392.35438316789714L388.03325757310097,383.968362383779L390.98992347206575,375.1967774256784L398.17762142522514,372.9797834252794L399.12257207472067,376.73903412160826L402.89870500073675,376.93181620859946L406.45618470711395,381.26941316590194L411.83160956891385,386.2817474276736L416.04107996947357,385.5106190797088ZM330.850106082303,343.86968828960494L325.10022501694607,341.6526942892059L320.230755008986,341.8454763761971L322.53148230068035,336.0620137664605L321.56276162298406,330.3749422002195L328.19833900097683,329.8929869827414L335.9045223280043,336.5439689839386ZM365.411951627243,321.98892141610133L365.94074219690367,323.14561393804865L371.8487495186045,335.7728406359737L377.1082566870266,337.5078794188946L381.0973644533229,349.74954194283714L383.01999724354766,353.8943568131484L392.57898177157233,356.014959770052L391.1241257214108,362.8587238582403L386.8722986483214,365.94323725009974L389.69566132772184,371.53391777284526L382.0558679058298,377.12459829559066L371.28269111255804,377.02820725209494L357.20869290953743,379.9199385569633L353.6567033209926,377.8957266435556L347.83224327717585,382.90806090532726L340.41775830252476,381.65497733988445L334.345115392986,385.7034011667L330.2283926402555,383.5827982097966L343.15038479311715,372.4014371643058L350.6159481932217,370.088052120411L350.55183248837363,369.9916610769154L338.09521870217407,368.2566222939945L336.26058122713255,364.0154163801876L344.95859410639025,360.64172985784114L341.1172733287531,354.85826724810454L343.3010715492594,347.9181121164206L355.02282931741195,348.8820225513766L356.8056108437108,342.616604724162L352.0790384942473,336.0620137664605L352.02649281181186,335.8692316794693L342.62642952979576,334.03780185305266L341.01254061575014,331.1460705481844L344.4127720985356,326.3265183734038L342.11816407572127,323.33839602503986L337.3380089570178,328.44712133030725L338.0430460759764,318.13327967627686L334.7406752806112,312.63899019702706L338.8064468409226,301.55402019503185L345.75036074404636,292.878826280427L351.7896689138171,293.7463456718874L361.1201244292623,292.878826280427L351.67859793743906,304.4457514999001L359.74736783106346,302.999885847466L368.1490474583092,302.999885847466L365.3038285765438,311.77147080556654L357.38506636604575,321.31418411163213ZM597.495007797178,542.7244110210498L596.5022079936489,545.9053154564049L583.951467893548,546.7728348478654L583.979739943601,545.0377960649444L573.3178351401364,542.917193108041L574.7688536688022,538.3868140637474L579.6536752026329,542.0496737165806L586.3838355093773,541.3749364121113L592.9224707197914,542.1460647600761L592.7492361692885,544.0738856299884ZM593.305915174285,483.54031031474483L588.075131019242,483.251137184258L583.5891681072532,482.2872267493019L573.3947558593047,485.08256701067455L579.5072402128621,491.05881170740247L575.171755582667,492.79385049032345L570.3941644383823,492.79385049032345L565.7745739583931,487.2995610110737L564.221983938109,489.61294605496835L566.3219853593903,496.0711459691742L570.7087494948626,501.08348023094595L567.5239223158756,503.3968652748407L572.4648644596917,508.40919953661245L576.8214397000056,511.49371292847195L577.1560872975895,517.5663486686954L569.0657538466887,514.6746173638271L571.7803158080067,520.1689068430769L566.2771808336796,521.2292083215286L569.7929393137462,530.6755305840985L564.0902268642205,530.8683126710897L556.8783522875964,526.2415425833003L553.42723490989,517.662739712191L551.7283439000555,510.52980249351583L548.2978840012488,505.6138592752397L543.7744048545237,499.44483249152063L543.1808566613769,496.4567101431567L547.0155033342504,491.25159379439367L547.4855896666385,487.78151622855165L550.2213669645078,486.23925953262193L550.313332989214,483.34752822775357L555.896085441372,482.48000883629317L559.0579167965941,480.0702327489028L563.7390371887207,480.2630148358941L565.0677165621696,478.4315850094775L566.6652489209453,478.046020835495L572.9575424240867,478.4315850094775L579.672182143677,475.4434626611136L585.7781275735197,479.2027133574423L593.4748166146849,478.14241187899063L593.413512428257,472.8409044867321L597.6584748823791,475.6362447481048L595.2552357563499,482.3836177927975ZM530.866477465788,429.17576178322037L532.9574587442869,433.32057665353165L535.6370356827249,436.3086990018956L532.5456894604624,440.3571228287112L528.67121296743,437.9473467413209L522.8820836567352,438.14012882831213L515.7222965932937,436.40509004539115L511.81535587391994,436.5978721323824L510.0231723841426,438.81486613278145L507.004155448026,436.40509004539115L505.2889073264326,440.83907804618934L509.380535256196,445.851412307961L511.2110642676927,449.1287077868118L515.0972237134961,453.1771316136275L518.3750096149698,455.49051665752216L521.6061945825716,460.02089570181585L529.1072737401603,464.0693195286315L528.216186464386,465.8043583115525L520.1797959055052,461.8523255282324L515.2844048550106,457.99668378840806L507.52844811493907,454.81577935305285L500.472945744697,447.0081048299084L502.1334588538249,446.14058543844794L498.3595477613087,441.7065974376498L498.2102353487097,438.0437377848166L492.79959789237427,436.40509004539115L490.22525370565126,440.93546908968494L487.7589011341644,437.3690004803474L488.0039750051485,433.7061408275141L488.3052109639728,433.5133587405229L494.08322759177344,433.89892291450536L495.6625782536738,432.0674930880887L498.4370371766539,433.8025318710097L501.7400091768908,433.99531395800096L501.6610557758755,431.007191609637L504.5815615396835,429.9468901311853L505.3919401455322,425.60929317388286L511.9520150574367,422.71756186901445L514.650058858357,424.0670364779531L520.9006535947221,428.69380656574236L527.7428202668622,430.7180184791502ZM508.94752042151015,419.0547022161813L511.6592949326493,412.11454708449736L510.01255836561234,409.80116204060266L514.6845528237509,409.80116204060266L515.2398854178156,405.3671740398046L519.4872648734605,408.1625143011772L522.5394334682683,409.3192068231246L529.4129126193443,407.969732214186L530.0449668510561,405.8491292572827L533.2959244259121,405.5599561267958L537.2582790135823,403.92130838737046L538.1594684800162,404.59604569183966L542.0481945941245,403.24657108290114L543.9093902820255,400.7404039520153L546.5490603751651,400.065666647546L555.4274426483119,403.34296212639674L557.1652626595082,402.1862696044494L561.7705477248804,405.1743919528134L562.4559309585102,407.969732214186L557.4888121872868,410.2831172580807L553.8359049494413,417.5124455202515L549.0298412062214,424.74177378242234L542.3480916798885,426.7659856958301L537.1775668372567,426.2840304783521L530.866477465788,429.17576178322037L527.7428202668622,430.7180184791502L520.9006535947221,428.69380656574236L514.650058858357,424.0670364779531L511.9520150574367,422.71756186901445L510.3638291764461,419.1510932596769ZM330.850106082303,343.86968828960494L331.3946931926486,351.5809717692538L324.34956884490646,361.12368507531926L309.4139505499377,367.4854939460296L298.23818662732964,365.84684620660425L306.063138511107,354.66548516111334L303.23571669867334,343.77329724610934L315.0125597823288,335.3872764619912L321.56276162298406,330.3749422002195L322.53148230068035,336.0620137664605L320.230755008986,341.8454763761971L325.10022501694607,341.6526942892059ZM288.5862558907962,209.11500948274113L285.498581323241,216.05516461442517L292.24125070120044,223.284492876596L281.2477463621101,231.47773157372285L258.64398648756685,238.8034508793893L251.87180402676285,240.82766279279713L242.59253083575027,239.1890150533717L222.96112447965209,235.81532853102533L231.26947125827581,231.09216739974045L216.82242707197202,225.88705105097756L230.12935069128298,223.76644809407412L230.66468356830887,220.58554365871885L216.12249053099708,218.1757675713285L222.83848646964952,211.13922139614908L234.10192616843216,209.59696470021925L243.44489169587044,216.8262929623902L255.7214256182479,211.04283035265337L264.04970468620036,214.03095270101733L276.9438802159247,208.34388113477632ZM496.942269166398,512.2648412764368L503.46340942048136,511.39732188497635L500.3627318905675,519.7833426690945L501.689788901669,523.0606381479453L499.8984266431385,528.6513186706907L493.26633412256547,524.602894843875L488.82413785960495,523.4462023219277L476.7831906503047,517.9519128426779L478.071728328368,512.457623363428L488.16302618832736,513.4215337983842ZM445.39686174359343,482.76918196677997L449.68560271209316,479.4918864879292L454.6811197211804,487.01038788058685L453.18970175381565,501.1798712744416L449.3371025472524,500.5051339699723L445.70672902529134,504.0716025793099L442.5178117975031,501.27626231793715L442.5033412020029,488.3598624895253L440.72981618933085,482.1908357058063ZM489.10869167083365,422.71756186901445L488.18431089302453,428.0190692612731L490.1106158968939,432.5494483055668L483.52090090934394,431.007191609637L476.7337841794153,434.7664423059659L477.12866678239243,440.0679496982245L476.0410206542487,443.1524630900839L478.77967685653715,448.5503615258382L486.61023253448633,453.9482599615924L490.82116130395394,462.8162359631885L500.183776334107,471.4914298777935L506.82787129652905,471.39503883429785L508.90014515105804,473.80481492168815L506.5370776132891,475.92541787859165L514.2138368872339,479.781059618416L520.4515237007699,483.0583550972668L527.8851962082708,488.55264457651657L528.7560305013582,490.5768564899244L527.1833431374221,494.43249822974883L522.4318885644437,489.4201639679771L514.956162284873,487.6851251850561L511.3769583397357,494.62528031674003L517.6527860529686,498.5773131000601L516.6876857644336,504.16799362280557L513.052694301568,504.7463398837792L508.51842739112385,513.9998800593578L504.9458963494781,514.7710084073227L504.9384939022947,511.49371292847195L506.7070032285493,505.8066413622309L508.5573396186389,503.49325631833625L505.1372891667423,497.32422953461725L502.5049005735692,491.92633109886293L498.9615057820164,490.5768564899244L496.5026330262946,485.9500864021351L490.9764350608968,484.02226553222295L487.31226368847683,479.6846685749204L481.0328383351053,479.0099312704511L474.4175720092509,474.19037909567066L466.71732501526066,467.153832920491L461.1040050295539,460.98480613677197L458.63847877153387,450.38179135225477L454.5013449375001,449.22509883030745L447.78140752101103,445.6586302209698L443.8187019396992,447.104495873404L438.8472843515524,452.0204390916802L435.3391896538917,452.88795848314066L436.46050015507666,448.16479735185567L431.9681236322226,446.8153227429172L430.048888816546,438.5256930022947L433.01201118339634,435.2483975234439L430.7398663523269,431.2963647401238L431.1428563864519,428.2118513482643L434.6626446567141,430.525236392159L438.7237695149328,430.0432811746809L443.46973085107857,426.3804215218477L444.84412271157987,428.1154603047687L448.82088955357807,427.72989613078624L450.72152053946434,423.39229917348376L456.816511783552,424.74177378242234L460.511618349075,423.00673499950136L461.26828597752626,418.5727469987033L466.23379181246355,420.115003694633L467.23568631721463,418.09079178122516L475.45134917650273,416.162970911313L477.26981495867875,419.9222216076418ZM546.4873917348073,472.5517313562452L545.7976605958427,468.6960896164208L543.7916922149387,467.5393970944735L541.9071959407032,464.6476657896051L543.4605119991103,462.33428074571054L545.422246087629,461.5631523977456L546.5626090520473,457.99668378840806L547.9901003114526,457.32194648393875L549.2393965310459,458.8642031798685L550.8500415494883,459.53894048433773L552.0308457228017,461.2739792672587L553.4111015452818,461.7559344847368L555.0585661671388,463.7801463981446L556.2739528683966,463.68375535464907L555.4255065653446,466.28631352903045L554.3892159900475,467.5393970944735L554.7153516427813,468.406916485934L552.8176698783632,468.7924806599164L547.8941844664733,470.4311283993418L547.559121102408,472.6481223997409ZM560.0919355413,338.95374507132885L559.4167184118468,336.2547958534517L560.0785281925843,333.26667350508774L556.5423397133117,331.6280257656624L548.2640786604621,329.7002048957502L546.2800917054085,320.7358378506583L555.1526689778085,317.45854237180765L568.2321931746454,318.13327967627686L575.8255844661367,317.07297819782514L577.0666740023527,319.2899721982243L581.2485861663098,319.9647095026934L589.0851766576952,325.1698258514565L590.0835446521374,329.989378026237L583.8400712221546,333.45945559207894L582.3201811835,339.43570028880686L573.9012765217176,343.48412411562254L566.2607085104421,343.38773307212693L564.1967714767097,340.11043759327606ZM426.20435447382016,383.968362383779L427.78971658247985,386.3781384711692L427.0882809517004,391.1012996024542L424.73103140449473,391.2940816894454L422.9359985384334,390.3301712544893L424.06743133762217,384.3539265577615ZM546.2800917054085,320.7358378506583L546.2957791754274,312.63899019702706L549.9010034984027,305.9880081958298L556.9850096799083,302.32514854299677L563.529118666726,310.3256051531324L569.7267985396383,310.0364320226456L570.7709110745927,301.84319332551866L577.2577142556792,300.011763499102L580.6576742736381,301.26484706454505L587.5669012775668,305.216879847865L593.9716919839842,305.3132708913606L597.8275889506745,307.723046978751L598.890157993917,312.92816332751386L601.789543322036,319.2899721982243L593.6925380023313,323.33839602503986L589.0851766576952,325.1698258514565L581.2485861663098,319.9647095026934L577.0666740023527,319.2899721982243L575.8255844661367,317.07297819782514L568.2321931746454,318.13327967627686L555.1526689778085,317.45854237180765ZM594.4298773302153,404.40326360484846L596.3414853734897,402.76461586542314L601.7505887204807,401.7043143869714L608.0013859166811,405.0780009093178L611.353189314243,405.4635650833002L615.3038617499951,408.35529638816854L614.9325501118598,412.0181560410017L618.0092176805672,413.7531948239227L619.471986367473,418.1871828247208L622.5458799159298,420.88613204259786L622.0508740521643,422.52477978202324L623.6847898805842,423.58508126047496L621.4974855185095,424.4526006519355L616.6182227803495,424.0670364779531L615.7117806639725,422.62117082551885L614.0450030649337,423.4886902169793L614.7540113384235,425.41651108689166L612.6267474208362,428.79019760923796L611.40603600712,432.45305726207124L609.3678945015624,433.6097497840185L607.609948687923,428.79019760923796L608.2568771587808,424.1634275214486L607.6988845321681,419.44026639016374L602.5906721606879,413.0784575194534L599.7525322573355,408.54807847515974L596.9992092503884,405.4635650833002ZM546.4873917348073,472.5517313562452L547.559121102408,472.6481223997409L547.8941844664733,470.4311283993418L552.8176698783632,468.7924806599164L554.7153516427813,468.406916485934L557.5962992811294,467.7321791814647L561.4796455661997,467.5393970944735L565.8502954664582,471.00947466031545L566.6652489209453,478.046020835495L565.0677165621696,478.4315850094775L563.7390371887207,480.2630148358941L559.0579167965941,480.0702327489028L555.896085441372,482.48000883629317L550.313332989214,483.34752822775357L546.730297716801,480.74497005337207L545.4142374593849,476.21459100907845ZM536.0913078987958,472.26255822575837L534.3223583564184,471.4914298777935L531.9050194489216,468.02135231195155L528.216186464386,465.8043583115525L529.1072737401603,464.0693195286315L530.2416053557632,458.0930748319036L532.9376810317498,455.68329874451337L534.5146865340328,454.7193883095573L536.8203432633032,456.5508181359738L538.0597962606199,457.99668378840806L540.8146480269754,459.1533763103553L544.1256824975202,461.3703703107544L543.4605119991103,462.33428074571054L541.9071959407032,464.6476657896051L539.640182258099,465.6115762245613L539.0710241837536,463.5873643111534L535.5029618842906,468.888871703412ZM428.0476868184527,347.7253300294294L434.6195452246334,348.0145031599162L435.9783464110135,351.6773628127495L433.58033706775603,361.41285820580606L431.3954723549657,365.46128203262185L426.54849177474387,365.46128203262185L427.45091291535766,376.73903412160826L423.1189294563846,374.2328669907223L418.2523380631139,369.5097058594374L410.66804949909505,371.72669985983646L404.7618740871811,370.85918046837594L409.1246567181192,367.9674491635077L416.93833408478935,352.2557090737231ZM609.9236203940565,175.86009947675552L598.6681151489297,180.1976964340579L593.219585508063,181.16160686901412L595.3629299651003,173.64310547635637L586.1057857134176,169.4018995625496L575.8167934358163,172.96836817188716L573.0490854162681,180.87243373852732L566.7782893826981,185.5955948698122L559.1546390752808,182.99303669543065L550.1237606977685,183.57138295640448L542.1058262039038,177.88431139016336L538.1210181657669,180.679651651536L533.8372317154937,181.16160686901412L533.0917093015552,188.19815304419365L519.8570028524425,186.4631142612726L518.1564979132289,192.43935895800053L511.4028067214151,192.43935895800053L506.855647911528,200.05425139415388L499.80442114616204,211.9103497441139L494.0530542104118,219.40748318295937L488.52429808899143,226.94735252942917L491.17426865227253,230.61021218226233L488.58060404301267,234.85141809606932L481.3525168432097,234.658636009078L476.35579281231395,244.6833045326216L476.5507302056315,258.94917896997185L481.2373296893963,264.34707740572617L478.6063855731086,276.9743041036511L472.12216105292896,284.30002340931753L468.6253090153569,290.46905019303665L463.70969496202713,283.914459235335L448.1806688552529,296.25251280277325L437.8423499692658,298.7586799336592L427.46707711534305,293.3607814979049L425.42430949812643,281.7938562784317L424.5171769049979,257.11774914355533L431.7403559487709,250.273985055367L441.5858316585919,245.6779433276762L451.6334737012676,241.21322696677964L466.49691544615627,230.22464800827993L473.14518984229153,222.7246445707043L480.0510730470742,215.28403626646036L488.4367588437878,204.873289807594L497.32371786351024,194.55996191490408L509.00610103658113,186.55950530476832L518.1572135843302,179.75370672329268L527.7204715346127,173.06475921538288L542.5829325495046,168.43798912759348L553.8755149166819,169.0163353885672L563.6248902072226,160.14835938697092L576.0295255887836,160.53392356095344L587.9434431949479,158.4133206040499L599.1680758821848,162.2942468181625L610.1069029860192,166.31738617069004L601.6525695751294,169.1127264320628ZM558.7427632659587,86.98755737380247L545.341687904212,91.42154537460067L534.2970453295841,88.9153782437146L538.3428873057275,86.12003798234184L534.4572187790966,82.7463514599956L546.9312596823198,80.62574850309215L549.7072646023507,84.57778128641212ZM499.8307149742075,67.51656658768911L502.1159855182327,63.85370693485595L510.79039894201884,63.46814276087332L518.3650497323364,67.22739345720231L528.7015563610296,71.18154266227646L538.4870596941453,75.22785006733784L523.4546542195923,79.46905598114483L520.3244333266938,87.27673050428928L515.0081220982412,89.30094241769712L512.2412579624071,98.16891841929328L504.71097802059427,98.6508736367714L491.33819785333685,92.09628267906987L496.977679018516,88.33703198274111L487.7798226921484,85.15612754738595L482.1567211550157,80.65663875827431L476.1950937370777,76.19176050229407L471.8412646995939,67.80573971817603L488.15885636480016,63.95009797835144L491.36032171950376,67.70934867468031ZM572.3772683592457,63.46814276087332L564.2250683669655,69.25160537061004L547.0171100825627,70.50468893605296L529.2587950856952,68.67325910963655L528.0973835648061,65.78152780476807L519.5405140576065,65.58874571777699L512.9590386251353,60.672802499500676L530.9633669006151,57.68468015113683L539.6248679781306,60.19084728202279L545.2961029967099,57.00994284666751L560.3757210399865,59.70889206454467ZM499.1090278100363,373.4617386427575L495.8509098091904,366.61797455456906L496.50791197185254,362.9551149017359L494.50116135053725,357.1716522919992L491.6389549140732,353.4124015956704L493.8744438917585,350.52067029080206L492.034311202647,345.122771855048L497.46708827582876,341.9418674196927L509.7674643398947,337.0259242014165L519.6680433894052,333.36306454858334L527.5724925332908,335.194494375L528.1898228639301,337.7970525493814L535.8006765400158,337.89344359287713L545.5808426526745,339.14652715832005L560.0919355413,338.95374507132885L564.1967714767097,340.11043759327606L566.2607085104421,343.38773307212693L566.8200990812553,348.1108942034118L569.22067345696,352.2557090737231L569.3327587883689,356.49691498752986L564.6008256550172,358.713908987929L567.3253538180844,363.6298522062051L567.6668207660147,368.4494043809857L572.1230439889476,377.79933560005986L571.3723854268422,380.7874579484238L567.406548395386,382.04054151386686L560.3331658829663,390.9085175154629L562.5566268456349,395.7280696902435L560.7706433182519,395.1497234292699L552.9217381158079,391.0049085589586L547.0896144971701,392.54716525488834L543.1672403831842,391.390472732941L538.4445880590858,393.70385777683566L534.2541630825721,389.9446070805068L530.9046815403051,391.390472732941L530.4523736151666,390.7157354284717L526.5538955352453,385.4142280362131L520.545766748496,384.8358817752395L519.7014207586662,381.46219525289314L514.1410128058474,380.2091116874502L512.9957487302374,383.00445194882286L508.5255635887069,380.7874579484238L509.01935082060817,377.79933560005986L502.9693221504054,376.93181620859946ZM294.97870701599527,472.26255822575837L298.3462781989251,469.5636090078813L301.9130410991014,468.02135231195155L303.6068104868068,473.2264686607145L308.57475780476403,473.2264686607145L310.13704620179374,471.87699405177597L315.0714237562287,472.26255822575837L317.0265622209728,477.564065618017L312.88612139675155,480.55218796638087L312.0894268133379,488.84181770700343L310.5856401456857,490.38407440293315L309.8865226077079,495.49279970820055L306.1165347543375,496.360319099661L309.02563354630377,502.81851901386693L306.17826068791544,509.8550651890465L308.8952854911002,513.0359696244018L307.5207452385343,515.92770092927L304.0374907308378,519.9761247560857L304.4889800060107,523.4462023219277L300.777376083141,526.2415425833003L296.35716424303166,524.7956769308662L291.7447528020789,525.9523694528136L293.7089732855254,517.5663486686954L293.44179621750624,511.01175771099395L289.6462575179188,509.95145623254217L287.95962024470555,505.90303240572655L289.15292734827864,498.9628772740425L292.9552562038282,495.0108444907225L293.9332306876492,490.67324753342007L296.24473527060303,484.21504761921415L296.3997971179567,479.6846685749204L295.0397931144971,475.92541787859165ZM562.4559309585102,407.969732214186L565.9304131817573,405.6563471702915L571.0839183570524,406.9094307357343L576.3411943748754,406.9094307357343L580.3026551491307,409.5119889101158L583.0479928242264,407.8733411706904L589.0771306434045,406.9094307357343L591.0282699244113,404.40326360484846L594.4298773302153,404.40326360484846L596.9992092503884,405.4635650833002L599.7525322573355,408.54807847515974L602.5906721606879,413.0784575194534L607.6988845321681,419.44026639016374L608.2568771587808,424.1634275214486L607.609948687923,428.79019760923796L609.3678945015624,433.6097497840185L613.1576058452122,435.63396169742634L617.0400704112409,433.89892291450536L620.9015123432472,435.730352740922L621.291359769454,438.5256930022947L617.3540640670095,440.74268700269374L614.7402187949709,439.77877656773757L613.0946162647136,452.6951763961494L608.0380887880208,451.5384838742021L601.7986563752777,447.6828421343777L592.0085581695084,450.18900926526356L587.9585029762097,452.88795848314066L575.5922764692041,452.309612222167L569.0273301555144,450.67096448274157L565.7975280786768,451.44209283070643L563.2459876800627,447.104495873404L561.6785828292087,445.1766750034918L563.5850812265811,443.34524517707524L561.4366775776641,442.0921616116322L558.8644440053247,444.4055466555269L553.955805215432,441.32103326366735L553.1627615841634,436.88704526286926L547.9915294965796,434.3808781319834L547.0114429422043,431.007191609637L542.3480916798885,426.7659856958301L549.0298412062214,424.74177378242234L553.8359049494413,417.5124455202515L557.4888121872868,410.2831172580807ZM560.0919355413,338.95374507132885L545.5808426526745,339.14652715832005L535.8006765400158,337.89344359287713L537.5305579535454,333.17028246159214L548.2640786604621,329.7002048957502L556.5423397133117,331.6280257656624L560.0785281925843,333.26667350508774L559.4167184118468,336.2547958534517ZM750.6211695181817,130.941873207801L756.6542793728838,126.23182531565567L763.015474031877,121.5919419887266L759.5440101137607,116.67599877045063L771.7543589338402,111.085318247705L783.5540928834052,106.65133024690715L788.8135813492964,119.95329424930128L780.8866104526207,124.96562851107308L774.909599699567,135.47225225209468L768.0320400052972,145.78609390612507L772.2909239612729,154.65406990772124L788.046325801648,163.42565486582168L784.3830110694773,164.38956530077792L761.722333380046,162.9436996483438L758.4743706035583,158.2205385170588L745.420379694079,155.32880721219044L742.7740004090253,149.54534460245372L748.8783337117508,147.2319595585592L746.9407406352348,141.4484969488226L751.8800019137224,136.8445891151432L757.065741353355,132.29134781673952ZM781.9810152491762,423.8742543909619L779.1293328320734,430.23606326167214L771.268284771671,431.9711020445931L764.3545018490779,443.0560720465883L773.2588162574698,453.1771316136275L773.323282100491,460.4064598757982L784.1746858734142,473.0336865737233L779.575205857157,477.37128353102577L778.4398668563929,480.0702327489028L774.5940512334832,479.299104400938L768.0269287767532,472.8409044867321L765.6136014603017,472.4553403127496L759.9923834782678,470.0455642253593L756.8956645450687,465.6115762245613L748.7280274874524,463.3945822241622L743.806933103706,465.0332299635876L742.0655032248251,463.0090180501798L730.0462834961493,457.9002927449124L717.4245062820064,456.1652539619914L710.1937136885264,454.3338241355748L709.2527237818877,455.58690770101776L697.6518398323437,446.52614961243034L687.7850024785872,442.5741168291103L679.9973235771602,436.21230795839995L685.8610376973495,434.5736602189746L691.9917366747521,425.60929317388286L686.9563226197081,421.3680872600759L698.6657594270264,416.93409925927784L698.205711200248,414.6207142153832L691.0167450076964,416.3557529983042L690.7718535361879,411.6325918670193L694.6973263002276,408.64446951865534L702.6088141653445,407.7769501271948L703.4822082297521,404.21048151785726L701.0694459293611,398.33062786462494L703.7607763591316,392.73994734187954L703.3276913201647,389.5590429065244L690.9254264793349,386.0889653406824L686.1767663259935,386.185356384178L680.6095501453389,381.17302212240634L674.5767636096616,382.90806090532726L663.9187281524434,379.1488102089985L663.8634894021814,377.02820725209494L660.5881934410212,372.4014371643058L654.0707207026769,371.82309090333206L653.1195998813207,368.5457954244813L654.943614607358,366.32880142408226L649.2641255910709,360.35255672735445L641.0530667202604,361.3164671623106L638.5588315881413,360.83451194483246L636.7388956325256,363.2442880322227L633.6732960110007,362.8587238582403L631.1642745934433,355.91856872655626L629.0075261268648,352.3521001172187L630.4358517952694,351.3881896822626L636.9241822286375,351.7737538562451L639.8056408011024,349.46036881235034L637.2614797223935,346.5686375074821L631.7361170675878,344.64081663756986L632.0724745273451,342.7129957676576L628.7020962445586,340.7851748977454L623.1460587117858,333.74862872256585L624.6083692228747,330.8568974176975L623.4128265638451,325.8445631559257L615.5257003531849,323.33839602503986L611.5361209997191,324.5914795904829L610.2046677238685,321.89253037260573L601.789543322036,319.2899721982243L598.890157993917,312.92816332751386L597.8275889506745,307.723046978751L593.9716919839842,305.3132708913606L596.9955649036851,301.84319332551866L594.0106438909643,291.9149158454709L598.9860817055697,285.74588906175177L597.7439633294513,283.8180681918394L605.882951240519,277.9382145386072L597.582124358599,272.8294892333398L604.8769079604865,265.9408029559247L612.4053348784705,259.14196105696317L618.7681704404563,252.97293427324405L620.9353694122634,247.47864479399425L609.33118615841,240.1529254883278L611.6073635890074,233.2127703566439L604.2743665082024,225.21231374650813L608.2220149108977,216.05516461442517L598.6971731948885,203.81350209048253L604.3606767264915,195.81304548034677L592.90149996865,188.68010826167176L593.219585508063,181.16160686901412L598.6681151489297,180.1976964340579L609.9236203940565,175.86009947675552L616.5702157550256,172.10084878042665L628.7363001945298,178.65543973812817L648.110836912959,181.16160686901412L662.5354011282054,187.12098673904973L676.4897980614211,193.30687834946104L682.8753157393394,198.41560365472844L684.6159676920724,205.45214982990808L677.7381364204468,211.13922139614908L666.483775401605,213.93456165752173L650.1189803559238,209.71524014980582L633.4426834938087,205.83771400389048L628.431894721814,207.187188612829L641.0939412795211,214.99486313597345L642.222738962136,220.00719739774524L644.1377205431086,230.99577635624473L653.9484325651152,234.1766807916L660.0647687065626,236.97202105297265L660.2344455338764,231.76690470420965L655.2631405289101,227.23652565991608L659.2342746447727,223.1881018331003L677.8189744653902,229.83908383429753L683.4668909815899,227.23652565991608L677.3237032822402,219.33246009327593L684.6202956036554,214.03197153058284L692.1592073831117,208.82583635225433L698.8347155969354,209.50057365672353L706.2622142427191,213.25982435305252L708.9327460789593,205.83771400389048L701.6980207656178,199.47590513318005L703.8040105351189,193.11409626246984L697.3140286255554,186.4631142612726L717.5278733778609,189.83680078361908L722.9490083313201,195.9094365238425L714.2910969471591,197.16252008928552L715.6478080544385,203.13876478601344L722.0024589390389,206.8016244388465L732.4847142501244,204.48823939495185L732.6074701202197,197.64447530676352L746.039164193453,192.53575000149613L756.8016431607864,187.8597860894348L767.9466488581422,183.37860086941316L773.3388215257347,183.86055608689117L768.3003914112724,190.4151470445927L777.297476818655,191.47544852304452L781.2662174579935,187.81258887021124L794.2427810369998,187.52341573972444L803.1792557783579,183.08942773892636L813.1791401105204,189.54762765313228L813.4935780055059,189.16206347914988L820.4634806707311,211.03078147221652L827.0805129395519,232.89949946528327L833.3656251828519,254.7682174583499L839.3372069061227,276.63693545141655L845.0114915330189,298.5056534444832L850.4028811900233,320.37437143754994L855.5242099940713,342.2430894306166L860.3869594806175,364.1118074236832L860.1395365039241,364.3045895106744L860.4704380146416,364.4973715976656L863.0000234337546,376.35346994762574L862.470124944721,376.25707890413014L860.7289017676862,379.4379833394853L849.2592873310903,373.9436938602355L836.5009538472106,374.1364759472267L828.7827665511203,378.6668549915204L818.4310325212455,374.3292580342179L799.3010953471754,366.90714768505586L786.7520019119817,367.1963208155428L772.0204807257761,378.8596370785116L772.2061929968161,386.667311601656L762.9204869063351,380.4018937744414L758.1430131784202,392.25799212440154L760.8721290192407,394.37859508130487L757.2198197901397,402.4754427349362L765.2666047928021,409.80116204060266L771.3064304926423,409.5119889101158L777.5976297967743,416.64492612879104L777.5552026343931,422.13921560804084ZM673.731315678466,57.68468015113683L684.5382776789795,55.75685928122459L693.3816379309183,55.66046823772888L695.5834984546779,58.55219954259735L698.0518760714913,55.94964136821568L702.8891362579657,54.21460258529487L712.4025545172437,56.5279876291894L710.7477029394319,58.16663536861495L703.4017548230156,59.612501021048956L698.3796600768452,60.383629369013875L698.2117171165914,62.2150591954304L691.8764645269831,63.95009797835144L684.6339122954025,61.443930847465595L686.9277733285376,58.07024432511923ZM553.955805215432,441.32103326366735L558.8644440053247,444.4055466555269L561.4366775776641,442.0921616116322L563.5850812265811,443.34524517707524L561.6785828292087,445.1766750034918L563.2459876800627,447.104495873404L561.2762236288023,449.51427196079425L562.144571681046,453.3699137006187L566.3771995749274,457.99668378840806L563.2100065192178,461.3703703107544L561.9357767790246,464.7440568331008L562.8876023050249,466.09353144203925L561.4796455661997,467.5393970944735L557.5962992811294,467.7321791814647L554.7153516427813,468.406916485934L554.3892159900475,467.5393970944735L555.4255065653446,466.28631352903045L556.2739528683966,463.68375535464907L555.0585661671388,463.7801463981446L553.4111015452818,461.7559344847368L552.0308457228017,461.2739792672587L550.8500415494883,459.53894048433773L549.2393965310459,458.8642031798685L547.9901003114526,457.32194648393875L546.5626090520473,457.99668378840806L545.422246087629,461.5631523977456L543.4605119991103,462.33428074571054L544.1256824975202,461.3703703107544L540.8146480269754,459.1533763103553L538.0597962606199,457.99668378840806L536.8203432633032,456.5508181359738L534.5146865340328,454.7193883095573L536.4773702033262,454.2374330920792L537.674671039782,449.1287077868118L533.526373280961,445.0802839599962L535.5576481101111,440.3571228287112L532.5456894604624,440.3571228287112L535.6370356827249,436.3086990018956L532.9574587442869,433.32057665353165L530.866477465788,429.17576178322037L537.1775668372567,426.2840304783521L542.3480916798885,426.7659856958301L547.0114429422043,431.007191609637L547.9915294965796,434.3808781319834L553.1627615841634,436.88704526286926ZM530.4523736151666,390.7157354284717L530.9046815403051,391.390472732941L534.2541630825721,389.9446070805068L538.4445880590858,393.70385777683566L543.1672403831842,391.390472732941L547.0896144971701,392.54716525488834L552.9217381158079,391.0049085589586L560.7706433182519,395.1497234292699L558.5770643767262,397.84867264714694L557.1652626595082,402.1862696044494L555.4274426483119,403.34296212639674L546.5490603751651,400.065666647546L543.9093902820255,400.7404039520153L542.0481945941245,403.24657108290114L538.1594684800162,404.59604569183966L537.2582790135823,403.92130838737046L533.2959244259121,405.5599561267958L530.0449668510561,405.8491292572827L529.4129126193443,407.969732214186L522.5394334682683,409.3192068231246L519.4872648734605,408.1625143011772L515.2398854178156,405.3671740398046L514.3959739476969,401.7043143869714L515.0489211381318,400.3548397780328L516.2071378734041,397.94506369064254L519.8202309319896,398.13784577763374L522.6072527045378,397.07754429918214L522.8144870129048,396.0172428207303L524.3537415634308,395.5352876032523L524.9082997166715,393.12551151586206L526.7384150187513,392.64355629838394L527.9567360354334,390.7157354284717ZM489.10869167083365,422.71756186901445L495.9754478259462,423.4886902169793L500.1561411078489,421.0789141295892L507.3901201595363,420.78974099910226L508.94752042151015,419.0547022161813L510.3638291764461,419.1510932596769L511.9520150574367,422.71756186901445L505.3919401455322,425.60929317388286L504.5815615396835,429.9468901311853L501.6610557758755,431.007191609637L501.7400091768908,433.99531395800096L498.4370371766539,433.8025318710097L495.6625782536738,432.0674930880887L494.08322759177344,433.89892291450536L488.3052109639728,433.5133587405229L490.1106158968939,432.5494483055668L488.18431089302453,428.0190692612731ZM550.6329883295291,216.92268400588557L543.9645599753557,224.4411853985432L545.3484257658539,230.99577635624473L534.020029193573,239.5745792273541L520.0613941320184,248.82811940293277L514.8689542523897,263.86512218824805L520.3208556053391,271.3836235809058L527.6413912388607,277.3598682776336L520.8950045782397,289.4087487145848L513.0157057135276,291.9149158454709L510.1996833195468,309.94004097915L505.8511210176978,319.9647095026934L496.3668685382047,318.9044080242418L491.97312608244096,327.38681985185553L482.8577046574861,327.86877506933365L480.51258117707096,317.74771550229445L474.19998964698664,305.6024440218474L468.6253090153569,290.46905019303665L472.12216105292896,284.30002340931753L478.6063855731086,276.9743041036511L481.2373296893963,264.34707740572617L476.5507302056315,258.94917896997185L476.35579281231395,244.6833045326216L481.3525168432097,234.658636009078L488.58060404301267,234.85141809606932L491.17426865227253,230.61021218226233L488.52429808899143,226.94735252942917L494.0530542104118,219.40748318295937L499.80442114616204,211.9103497441139L506.855647911528,200.05425139415388L511.4028067214151,192.43935895800053L518.1564979132289,192.43935895800053L519.8570028524425,186.4631142612726L533.0917093015552,188.19815304419365L533.8372317154937,181.16160686901412L538.1210181657669,180.679651651536L547.6208005244262,185.98115904379472L558.9154406648039,193.21048730596533L560.1014646517857,209.69335574371485L562.8018077997644,213.93456165752173ZM633.6732960110007,362.8587238582403L636.7388956325256,363.2442880322227L638.5588315881413,360.83451194483246L641.0530667202604,361.3164671623106L649.2641255910709,360.35255672735445L654.943614607358,366.32880142408226L653.1195998813207,368.5457954244813L654.0707207026769,371.82309090333206L660.5881934410212,372.4014371643058L663.8634894021814,377.02820725209494L663.9187281524434,379.1488102089985L674.5767636096616,382.90806090532726L680.6095501453389,381.17302212240634L686.1767663259935,386.185356384178L690.9254264793349,386.0889653406824L703.3276913201647,389.5590429065244L703.7607763591316,392.73994734187954L701.0694459293611,398.33062786462494L703.4822082297521,404.21048151785726L702.6088141653445,407.7769501271948L694.6973263002276,408.64446951865534L690.7718535361879,411.6325918670193L691.0167450076964,416.3557529983042L684.4765389257731,417.2232723897647L679.2855696014863,420.69334995560666L671.5801900190174,421.2716962165804L664.7473906159972,425.22372899990035L665.817862561764,431.8747110010975L670.0841721175817,434.47726917547897L678.5100789376313,433.8025318710097L677.2657538757178,437.6581736108342L668.2396302726422,439.48960343725076L657.3360320186874,445.6586302209698L652.5779253434736,443.53802726406644L654.0177464195385,438.5256930022947L644.6911510227105,435.3447885669395L645.9738849738911,433.32057665353165L653.7331769567963,429.7541080441941L651.0726062989374,427.2479409133082L638.0165042924439,424.54899169543114L637.1438385836648,420.59695891211106L629.5519073457732,421.9464335210496L626.8674160716082,427.8262871742818L620.9015123432472,435.730352740922L617.0400704112409,433.89892291450536L613.1576058452122,435.63396169742634L609.3678945015624,433.6097497840185L611.40603600712,432.45305726207124L612.6267474208362,428.79019760923796L614.7540113384235,425.41651108689166L614.0450030649337,423.4886902169793L615.7117806639725,422.62117082551885L616.6182227803495,424.0670364779531L621.4974855185095,424.4526006519355L623.6847898805842,423.58508126047496L622.0508740521643,422.52477978202324L622.5458799159298,420.88613204259786L619.471986367473,418.1871828247208L618.0092176805672,413.7531948239227L614.9325501118598,412.0181560410017L615.3038617499951,408.35529638816854L611.353189314243,405.4635650833002L608.0013859166811,405.0780009093178L601.7505887204807,401.7043143869714L596.3414853734897,402.76461586542314L594.4298773302153,404.40326360484846L591.0282699244113,404.40326360484846L589.0771306434045,406.9094307357343L583.0479928242264,407.8733411706904L580.3026551491307,409.5119889101158L576.3411943748754,406.9094307357343L571.0839183570524,406.9094307357343L565.9304131817573,405.6563471702915L562.4559309585102,407.969732214186L561.7705477248804,405.1743919528134L557.1652626595082,402.1862696044494L558.5770643767262,397.84867264714694L560.7706433182519,395.1497234292699L562.5566268456349,395.7280696902435L560.3331658829663,390.9085175154629L567.406548395386,382.04054151386686L571.3723854268422,380.7874579484238L572.1230439889476,377.79933560005986L567.6668207660147,368.4494043809857L571.4871269274662,367.9674491635077L575.7744044850893,365.07571785863934L581.9849046451161,364.88293577164814L590.1264842450445,365.65406411961305L599.2529902839641,368.2566222939945L605.6419279759268,368.4494043809857L608.7130971714317,369.9916610769154L611.637787873755,368.1602312504989L613.9088718797141,370.66639838138474L621.1308854391572,370.1844431639066L624.4665071708766,371.14835359886274L624.5729316625267,365.75045516310854L626.8558644948507,363.4370701192139Z"></path></g><g class="layer backplot"><g class="choroplethlayer"><g class="trace choropleth"><path class="choroplethlocation" fill="rgb(21, 89, 168)" style="stroke: rgb(0, 0, 0); stroke-opacity: 1; stroke-width: 1px; opacity: 1;" d="M499.1090278100363,373.4617386427575L495.8509098091904,366.61797455456906L496.50791197185254,362.9551149017359L494.50116135053725,357.1716522919992L491.6389549140732,353.4124015956704L493.8744438917585,350.52067029080206L492.034311202647,345.122771855048L497.46708827582876,341.9418674196927L509.7674643398947,337.0259242014165L519.6680433894052,333.36306454858334L527.5724925332908,335.194494375L528.1898228639301,337.7970525493814L535.8006765400158,337.89344359287713L545.5808426526745,339.14652715832005L560.0919355413,338.95374507132885L564.1967714767097,340.11043759327606L566.2607085104421,343.38773307212693L566.8200990812553,348.1108942034118L569.22067345696,352.2557090737231L569.3327587883689,356.49691498752986L564.6008256550172,358.713908987929L567.3253538180844,363.6298522062051L567.6668207660147,368.4494043809857L572.1230439889476,377.79933560005986L571.3723854268422,380.7874579484238L567.406548395386,382.04054151386686L560.3331658829663,390.9085175154629L562.5566268456349,395.7280696902435L560.7706433182519,395.1497234292699L552.9217381158079,391.0049085589586L547.0896144971701,392.54716525488834L543.1672403831842,391.390472732941L538.4445880590858,393.70385777683566L534.2541630825721,389.9446070805068L530.9046815403051,391.390472732941L530.4523736151666,390.7157354284717L526.5538955352453,385.4142280362131L520.545766748496,384.8358817752395L519.7014207586662,381.46219525289314L514.1410128058474,380.2091116874502L512.9957487302374,383.00445194882286L508.5255635887069,380.7874579484238L509.01935082060817,377.79933560005986L502.9693221504054,376.93181620859946Z"></path><path class="choroplethlocation" fill="rgb(2, 69, 148)" style="stroke: rgb(0, 0, 0); stroke-opacity: 1; stroke-width: 1px; opacity: 1;" d="M546.2800917054085,320.7358378506583L546.2957791754274,312.63899019702706L549.9010034984027,305.9880081958298L556.9850096799083,302.32514854299677L563.529118666726,310.3256051531324L569.7267985396383,310.0364320226456L570.7709110745927,301.84319332551866L577.2577142556792,300.011763499102L580.6576742736381,301.26484706454505L587.5669012775668,305.216879847865L593.9716919839842,305.3132708913606L597.8275889506745,307.723046978751L598.890157993917,312.92816332751386L601.789543322036,319.2899721982243L593.6925380023313,323.33839602503986L589.0851766576952,325.1698258514565L581.2485861663098,319.9647095026934L577.0666740023527,319.2899721982243L575.8255844661367,317.07297819782514L568.2321931746454,318.13327967627686L555.1526689778085,317.45854237180765Z"></path><path class="choroplethlocation" fill="rgb(30, 98, 178)" style="stroke: rgb(0, 0, 0); stroke-opacity: 1; stroke-width: 1px; opacity: 1;" d="M330.850106082303,343.86968828960494L325.10022501694607,341.6526942892059L320.230755008986,341.8454763761971L322.53148230068035,336.0620137664605L321.56276162298406,330.3749422002195L328.19833900097683,329.8929869827414L335.9045223280043,336.5439689839386ZM365.411951627243,321.98892141610133L365.94074219690367,323.14561393804865L371.8487495186045,335.7728406359737L377.1082566870266,337.5078794188946L381.0973644533229,349.74954194283714L383.01999724354766,353.8943568131484L392.57898177157233,356.014959770052L391.1241257214108,362.8587238582403L386.8722986483214,365.94323725009974L389.69566132772184,371.53391777284526L382.0558679058298,377.12459829559066L371.28269111255804,377.02820725209494L357.20869290953743,379.9199385569633L353.6567033209926,377.8957266435556L347.83224327717585,382.90806090532726L340.41775830252476,381.65497733988445L334.345115392986,385.7034011667L330.2283926402555,383.5827982097966L343.15038479311715,372.4014371643058L350.6159481932217,370.088052120411L350.55183248837363,369.9916610769154L338.09521870217407,368.2566222939945L336.26058122713255,364.0154163801876L344.95859410639025,360.64172985784114L341.1172733287531,354.85826724810454L343.3010715492594,347.9181121164206L355.02282931741195,348.8820225513766L356.8056108437108,342.616604724162L352.0790384942473,336.0620137664605L352.02649281181186,335.8692316794693L342.62642952979576,334.03780185305266L341.01254061575014,331.1460705481844L344.4127720985356,326.3265183734038L342.11816407572127,323.33839602503986L337.3380089570178,328.44712133030725L338.0430460759764,318.13327967627686L334.7406752806112,312.63899019702706L338.8064468409226,301.55402019503185L345.75036074404636,292.878826280427L351.7896689138171,293.7463456718874L361.1201244292623,292.878826280427L351.67859793743906,304.4457514999001L359.74736783106346,302.999885847466L368.1490474583092,302.999885847466L365.3038285765438,311.77147080556654L357.38506636604575,321.31418411163213Z"></path><path class="choroplethlocation" fill="rgb(30, 98, 178)" style="stroke: rgb(0, 0, 0); stroke-opacity: 1; stroke-width: 1px; opacity: 1;" d="M428.0476868184527,347.7253300294294L434.6195452246334,348.0145031599162L435.9783464110135,351.6773628127495L433.58033706775603,361.41285820580606L431.3954723549657,365.46128203262185L426.54849177474387,365.46128203262185L427.45091291535766,376.73903412160826L423.1189294563846,374.2328669907223L418.2523380631139,369.5097058594374L410.66804949909505,371.72669985983646L404.7618740871811,370.85918046837594L409.1246567181192,367.9674491635077L416.93833408478935,352.2557090737231Z"></path><path class="choroplethlocation" fill="rgb(48, 118, 199)" style="stroke: rgb(0, 0, 0); stroke-opacity: 1; stroke-width: 1px; opacity: 1;" d="M515.0489211381318,400.3548397780328L511.2723190761403,398.33062786462494L507.4421615982656,398.90897412559866L501.09758963665774,395.6316786467479L498.2268790949218,396.4028069947128L493.5751666937743,400.8367949955109L487.5444490739474,397.3667174296688L482.9439333807751,392.73994734187954L478.78447352671276,390.137389167498L477.9572281865972,385.6070101232043L476.60683696292944,382.42610568784926L482.5464559866002,380.1127206439546L485.55809035754004,377.51016246957306L491.3958811979452,375.3895595126696L493.43989411186254,373.3653475992618L495.54512833158344,374.6184311647048L499.1090278100363,373.4617386427575L502.9693221504054,376.93181620859946L509.01935082060817,377.79933560005986L508.5255635887069,380.7874579484238L512.9957487302374,383.00445194882286L514.1410128058474,380.2091116874502L519.7014207586662,381.46219525289314L520.545766748496,384.8358817752395L526.5538955352453,385.4142280362131L530.4523736151666,390.7157354284717L527.9567360354334,390.7157354284717L526.7384150187513,392.64355629838394L524.9082997166715,393.12551151586206L524.3537415634308,395.5352876032523L522.8144870129048,396.0172428207303L522.6072527045378,397.07754429918214L519.8202309319896,398.13784577763374L516.2071378734041,397.94506369064254Z"></path><path class="choroplethlocation" fill="rgb(58, 128, 209)" style="stroke: rgb(0, 0, 0); stroke-opacity: 1; stroke-width: 1px; opacity: 1;" d="M530.4523736151666,390.7157354284717L530.9046815403051,391.390472732941L534.2541630825721,389.9446070805068L538.4445880590858,393.70385777683566L543.1672403831842,391.390472732941L547.0896144971701,392.54716525488834L552.9217381158079,391.0049085589586L560.7706433182519,395.1497234292699L558.5770643767262,397.84867264714694L557.1652626595082,402.1862696044494L555.4274426483119,403.34296212639674L546.5490603751651,400.065666647546L543.9093902820255,400.7404039520153L542.0481945941245,403.24657108290114L538.1594684800162,404.59604569183966L537.2582790135823,403.92130838737046L533.2959244259121,405.5599561267958L530.0449668510561,405.8491292572827L529.4129126193443,407.969732214186L522.5394334682683,409.3192068231246L519.4872648734605,408.1625143011772L515.2398854178156,405.3671740398046L514.3959739476969,401.7043143869714L515.0489211381318,400.3548397780328L516.2071378734041,397.94506369064254L519.8202309319896,398.13784577763374L522.6072527045378,397.07754429918214L522.8144870129048,396.0172428207303L524.3537415634308,395.5352876032523L524.9082997166715,393.12551151586206L526.7384150187513,392.64355629838394L527.9567360354334,390.7157354284717Z"></path><path class="choroplethlocation" fill="rgb(70, 141, 223)" style="stroke: rgb(0, 0, 0); stroke-opacity: 1; stroke-width: 1px; opacity: 1;" d="M508.94752042151015,419.0547022161813L511.6592949326493,412.11454708449736L510.01255836561234,409.80116204060266L514.6845528237509,409.80116204060266L515.2398854178156,405.3671740398046L519.4872648734605,408.1625143011772L522.5394334682683,409.3192068231246L529.4129126193443,407.969732214186L530.0449668510561,405.8491292572827L533.2959244259121,405.5599561267958L537.2582790135823,403.92130838737046L538.1594684800162,404.59604569183966L542.0481945941245,403.24657108290114L543.9093902820255,400.7404039520153L546.5490603751651,400.065666647546L555.4274426483119,403.34296212639674L557.1652626595082,402.1862696044494L561.7705477248804,405.1743919528134L562.4559309585102,407.969732214186L557.4888121872868,410.2831172580807L553.8359049494413,417.5124455202515L549.0298412062214,424.74177378242234L542.3480916798885,426.7659856958301L537.1775668372567,426.2840304783521L530.866477465788,429.17576178322037L527.7428202668622,430.7180184791502L520.9006535947221,428.69380656574236L514.650058858357,424.0670364779531L511.9520150574367,422.71756186901445L510.3638291764461,419.1510932596769Z"></path><path class="choroplethlocation" fill="rgb(48, 118, 199)" style="stroke: rgb(0, 0, 0); stroke-opacity: 1; stroke-width: 1px; opacity: 1;"></path><path class="choroplethlocation" fill="rgb(64, 134, 216)" style="stroke: rgb(0, 0, 0); stroke-opacity: 1; stroke-width: 1px; opacity: 1;" d="M550.6329883295291,216.92268400588557L543.9645599753557,224.4411853985432L545.3484257658539,230.99577635624473L534.020029193573,239.5745792273541L520.0613941320184,248.82811940293277L514.8689542523897,263.86512218824805L520.3208556053391,271.3836235809058L527.6413912388607,277.3598682776336L520.8950045782397,289.4087487145848L513.0157057135276,291.9149158454709L510.1996833195468,309.94004097915L505.8511210176978,319.9647095026934L496.3668685382047,318.9044080242418L491.97312608244096,327.38681985185553L482.8577046574861,327.86877506933365L480.51258117707096,317.74771550229445L474.19998964698664,305.6024440218474L468.6253090153569,290.46905019303665L472.12216105292896,284.30002340931753L478.6063855731086,276.9743041036511L481.2373296893963,264.34707740572617L476.5507302056315,258.94917896997185L476.35579281231395,244.6833045326216L481.3525168432097,234.658636009078L488.58060404301267,234.85141809606932L491.17426865227253,230.61021218226233L488.52429808899143,226.94735252942917L494.0530542104118,219.40748318295937L499.80442114616204,211.9103497441139L506.855647911528,200.05425139415388L511.4028067214151,192.43935895800053L518.1564979132289,192.43935895800053L519.8570028524425,186.4631142612726L533.0917093015552,188.19815304419365L533.8372317154937,181.16160686901412L538.1210181657669,180.679651651536L547.6208005244262,185.98115904379472L558.9154406648039,193.21048730596533L560.1014646517857,209.69335574371485L562.8018077997644,213.93456165752173Z"></path><path class="choroplethlocation" fill="rgb(73, 144, 226)" style="stroke: rgb(0, 0, 0); stroke-opacity: 1; stroke-width: 1px; opacity: 1;" d="M446.1269570770702,464.2621016156227L451.61787592457733,460.21367778880705L452.87526975819077,469.3708269208901L449.87702710192315,477.6604566615126L446.09832721445935,475.4434626611136L444.28077723664563,468.2141343989428ZM422.9359985384334,390.3301712544893L424.73103140449473,391.2940816894454L427.0882809517004,391.1012996024542L430.87460423185564,393.89663986382686L442.57994832207373,395.8244607337391L438.2183341624712,403.15018003940554L436.93507632786344,410.76507247555884L434.5736992495164,412.59650230197536L430.8202254797799,411.6325918670193L431.02221626636634,414.33154108489634L424.7712431396479,420.40417682511986L424.4417036575165,425.22372899990035L428.4610457968184,423.58508126047496L431.1428563864519,428.2118513482643L430.7398663523269,431.2963647401238L433.01201118339634,435.2483975234439L430.048888816546,438.5256930022947L431.9681236322226,446.8153227429172L436.46050015507666,448.16479735185567L435.3391896538917,452.88795848314066L427.49525043994004,458.8642031798685L410.9779702236403,455.97247187500017L398.53302887211987,459.44254944084213L397.32944429079913,465.90074935504805L387.4304742841178,467.3466150074823L378.16414446386756,462.4306717892061L374.9940562799256,464.7440568331008L359.68348272505796,459.92450465832025L356.60717312232066,455.77968978800897L361.3391259071721,449.32148987380305L364.30911731486265,428.0190692612731L356.5870506981574,416.7413171722866L350.89735469353474,411.34341873653244L338.62864078479834,407.1986038662211L338.4834520447598,399.39092934307666L349.29097933861806,397.07754429918214L362.7855271094119,399.8728845605548L361.1250722406482,387.72761308010786L368.4849017680348,392.35438316789714L388.03325757310097,383.968362383779L390.98992347206575,375.1967774256784L398.17762142522514,372.9797834252794L399.12257207472067,376.73903412160826L402.89870500073675,376.93181620859946L406.45618470711395,381.26941316590194L411.83160956891385,386.2817474276736L416.04107996947357,385.5106190797088Z"></path><path class="choroplethlocation" fill="rgb(76, 147, 229)" style="stroke: rgb(0, 0, 0); stroke-opacity: 1; stroke-width: 1px; opacity: 1;" d="M294.97870701599527,472.26255822575837L296.11406639928356,464.6476657896051L293.03667087038644,460.02089570181585L305.7209236899225,452.309612222167L315.85730010851785,454.2374330920792L327.15734418087385,454.1410420485836L335.9639353689916,455.97247187500017L342.9830416360995,455.3941256140265L356.60717312232066,455.77968978800897L359.68348272505796,459.92450465832025L374.9940562799256,464.7440568331008L378.16414446386756,462.4306717892061L387.4304742841178,467.3466150074823L397.32944429079913,465.90074935504805L397.50927120039853,472.16616718226277L389.0765559587288,479.299104400938L378.08237294595847,481.516098401337L377.1290595563154,485.1789580541702L371.59758112656107,491.05881170740247L367.8245345893122,499.83039666550303L370.8420597154947,505.90303240572655L365.6367138873949,510.72258458050703L363.4182175404099,517.662739712191L356.76972582163,519.7833426690945L350.24386531973823,528.072972409717L339.22510180673765,528.1693634532127L330.9571277680704,527.9765813662214L325.2547802813002,531.7358320625501L321.71499921788615,535.7842558893658L317.46290609296693,534.9167364979053L314.4871681096878,531.3502678885677L312.4798740989527,525.1812411048486L304.4889800060107,523.4462023219277L304.0374907308378,519.9761247560857L307.5207452385343,515.92770092927L308.8952854911002,513.0359696244018L306.17826068791544,509.8550651890465L309.02563354630377,502.81851901386693L306.1165347543375,496.360319099661L309.8865226077079,495.49279970820055L310.5856401456857,490.38407440293315L312.0894268133379,488.84181770700343L312.88612139675155,480.55218796638087L317.0265622209728,477.564065618017L315.0714237562287,472.26255822575837L310.13704620179374,471.87699405177597L308.57475780476403,473.2264686607145L303.6068104868068,473.2264686607145L301.9130410991014,468.02135231195155L298.3462781989251,469.5636090078813Z"></path><path class="choroplethlocation" fill="rgb(86, 157, 239)" style="stroke: rgb(0, 0, 0); stroke-opacity: 1; stroke-width: 1px; opacity: 1;" d="M593.219585508063,181.16160686901412L592.90149996865,188.68010826167176L604.3606767264915,195.81304548034677L598.6971731948885,203.81350209048253L608.2220149108977,216.05516461442517L604.2743665082024,225.21231374650813L611.6073635890074,233.2127703566439L609.33118615841,240.1529254883278L620.9353694122634,247.47864479399425L618.7681704404563,252.97293427324405L612.4053348784705,259.14196105696317L604.8769079604865,265.9408029559247L597.582124358599,272.8294892333398L583.9304607360102,273.69700862480033L570.9091728977897,277.6490414081204L558.6806946380345,279.86603540851945L554.0594507600033,273.98618175528725L546.5916095420802,270.5161041894453L547.8673883684859,260.0094804484237L543.8730760460652,250.273985055367L547.1486963546731,244.1049582716479L553.4532945011788,237.35758522695517L561.3584104252358,231.4779324154655L569.507437717085,225.69426896398625L574.1777373806079,223.4772749635872L573.0829555422545,218.94689591929352L562.8018077997644,213.93456165752173L560.1014646517857,209.69335574371485L558.9154406648039,193.21048730596533L547.6208005244262,185.98115904379472L538.1210181657669,180.679651651536L542.1058262039038,177.88431139016336L550.1237606977685,183.57138295640448L559.1546390752808,182.99303669543065L566.7782893826981,185.5955948698122L573.0490854162681,180.87243373852732L575.8167934358163,172.96836817188716L586.1057857134176,169.4018995625496L595.3629299651003,173.64310547635637Z"></path><path class="choroplethlocation" fill="rgb(83, 154, 236)" style="stroke: rgb(0, 0, 0); stroke-opacity: 1; stroke-width: 1px; opacity: 1;" d="M330.850106082303,343.86968828960494L331.3946931926486,351.5809717692538L324.34956884490646,361.12368507531926L309.4139505499377,367.4854939460296L298.23818662732964,365.84684620660425L306.063138511107,354.66548516111334L303.23571669867334,343.77329724610934L315.0125597823288,335.3872764619912L321.56276162298406,330.3749422002195L322.53148230068035,336.0620137664605L320.230755008986,341.8454763761971L325.10022501694607,341.6526942892059Z"></path><path class="choroplethlocation" fill="rgb(79, 150, 233)" style="stroke: rgb(0, 0, 0); stroke-opacity: 1; stroke-width: 1px; opacity: 1;" d="M294.97870701599527,472.26255822575837L298.3462781989251,469.5636090078813L301.9130410991014,468.02135231195155L303.6068104868068,473.2264686607145L308.57475780476403,473.2264686607145L310.13704620179374,471.87699405177597L315.0714237562287,472.26255822575837L317.0265622209728,477.564065618017L312.88612139675155,480.55218796638087L312.0894268133379,488.84181770700343L310.5856401456857,490.38407440293315L309.8865226077079,495.49279970820055L306.1165347543375,496.360319099661L309.02563354630377,502.81851901386693L306.17826068791544,509.8550651890465L308.8952854911002,513.0359696244018L307.5207452385343,515.92770092927L304.0374907308378,519.9761247560857L304.4889800060107,523.4462023219277L300.777376083141,526.2415425833003L296.35716424303166,524.7956769308662L291.7447528020789,525.9523694528136L293.7089732855254,517.5663486686954L293.44179621750624,511.01175771099395L289.6462575179188,509.95145623254217L287.95962024470555,505.90303240572655L289.15292734827864,498.9628772740425L292.9552562038282,495.0108444907225L293.9332306876492,490.67324753342007L296.24473527060303,484.21504761921415L296.3997971179567,479.6846685749204L295.0397931144971,475.92541787859165Z"></path><path class="choroplethlocation" fill="rgb(112, 177, 253)" style="stroke: rgb(0, 0, 0); stroke-opacity: 1; stroke-width: 1px; opacity: 1;" d="M496.942269166398,512.2648412764368L503.46340942048136,511.39732188497635L500.3627318905675,519.7833426690945L501.689788901669,523.0606381479453L499.8984266431385,528.6513186706907L493.26633412256547,524.602894843875L488.82413785960495,523.4462023219277L476.7831906503047,517.9519128426779L478.071728328368,512.457623363428L488.16302618832736,513.4215337983842ZM445.39686174359343,482.76918196677997L449.68560271209316,479.4918864879292L454.6811197211804,487.01038788058685L453.18970175381565,501.1798712744416L449.3371025472524,500.5051339699723L445.70672902529134,504.0716025793099L442.5178117975031,501.27626231793715L442.5033412020029,488.3598624895253L440.72981618933085,482.1908357058063ZM489.10869167083365,422.71756186901445L488.18431089302453,428.0190692612731L490.1106158968939,432.5494483055668L483.52090090934394,431.007191609637L476.7337841794153,434.7664423059659L477.12866678239243,440.0679496982245L476.0410206542487,443.1524630900839L478.77967685653715,448.5503615258382L486.61023253448633,453.9482599615924L490.82116130395394,462.8162359631885L500.183776334107,471.4914298777935L506.82787129652905,471.39503883429785L508.90014515105804,473.80481492168815L506.5370776132891,475.92541787859165L514.2138368872339,479.781059618416L520.4515237007699,483.0583550972668L527.8851962082708,488.55264457651657L528.7560305013582,490.5768564899244L527.1833431374221,494.43249822974883L522.4318885644437,489.4201639679771L514.956162284873,487.6851251850561L511.3769583397357,494.62528031674003L517.6527860529686,498.5773131000601L516.6876857644336,504.16799362280557L513.052694301568,504.7463398837792L508.51842739112385,513.9998800593578L504.9458963494781,514.7710084073227L504.9384939022947,511.49371292847195L506.7070032285493,505.8066413622309L508.5573396186389,503.49325631833625L505.1372891667423,497.32422953461725L502.5049005735692,491.92633109886293L498.9615057820164,490.5768564899244L496.5026330262946,485.9500864021351L490.9764350608968,484.02226553222295L487.31226368847683,479.6846685749204L481.0328383351053,479.0099312704511L474.4175720092509,474.19037909567066L466.71732501526066,467.153832920491L461.1040050295539,460.98480613677197L458.63847877153387,450.38179135225477L454.5013449375001,449.22509883030745L447.78140752101103,445.6586302209698L443.8187019396992,447.104495873404L438.8472843515524,452.0204390916802L435.3391896538917,452.88795848314066L436.46050015507666,448.16479735185567L431.9681236322226,446.8153227429172L430.048888816546,438.5256930022947L433.01201118339634,435.2483975234439L430.7398663523269,431.2963647401238L431.1428563864519,428.2118513482643L434.6626446567141,430.525236392159L438.7237695149328,430.0432811746809L443.46973085107857,426.3804215218477L444.84412271157987,428.1154603047687L448.82088955357807,427.72989613078624L450.72152053946434,423.39229917348376L456.816511783552,424.74177378242234L460.511618349075,423.00673499950136L461.26828597752626,418.5727469987033L466.23379181246355,420.115003694633L467.23568631721463,418.09079178122516L475.45134917650273,416.162970911313L477.26981495867875,419.9222216076418Z"></path><path class="choroplethlocation" fill="rgb(127, 185, 252)" style="stroke: rgb(0, 0, 0); stroke-opacity: 1; stroke-width: 1px; opacity: 1;" d="M515.2398854178156,405.3671740398046L514.6845528237509,409.80116204060266L510.01255836561234,409.80116204060266L511.6592949326493,412.11454708449736L508.94752042151015,419.0547022161813L507.3901201595363,420.78974099910226L500.1561411078489,421.0789141295892L495.9754478259462,423.4886902169793L489.10869167083365,422.71756186901445L477.26981495867875,419.9222216076418L475.45134917650273,416.162970911313L467.23568631721463,418.09079178122516L466.23379181246355,420.115003694633L461.26828597752626,418.5727469987033L457.02825388943376,418.28357386821637L453.34905132252607,416.3557529983042L454.67343219078475,413.7531948239227L454.4207328720415,411.8253739540105L456.8832195685969,411.2470276930368L461.05474743699097,414.2351500414008L462.22482548265924,411.34341873653244L469.4908265056395,411.8253739540105L475.4534448691562,409.89755308409826L479.38010041403,410.2831172580807L481.9575122731423,412.4037202149841L482.7156228072575,410.5722903885676L481.59239025781795,403.63213525688354L484.55949843181196,402.282660647945L487.5444490739474,397.3667174296688L493.5751666937743,400.8367949955109L498.2268790949218,396.4028069947128L501.09758963665774,395.6316786467479L507.4421615982656,398.90897412559866L511.2723190761403,398.33062786462494L515.0489211381318,400.3548397780328L514.3959739476969,401.7043143869714Z"></path><path class="choroplethlocation" fill="rgb(122, 182, 253)" style="stroke: rgb(0, 0, 0); stroke-opacity: 1; stroke-width: 1px; opacity: 1;" d="M404.7618740871811,370.85918046837594L410.66804949909505,371.72669985983646L418.2523380631139,369.5097058594374L423.1189294563846,374.2328669907223L427.45091291535766,376.73903412160826L426.20435447382016,383.968362383779L424.06743133762217,384.3539265577615L422.9359985384334,390.3301712544893L416.04107996947357,385.5106190797088L411.83160956891385,386.2817474276736L406.45618470711395,381.26941316590194L402.89870500073675,376.93181620859946L399.12257207472067,376.73903412160826L398.17762142522514,372.9797834252794Z"></path><path class="choroplethlocation" fill="rgb(179, 211, 251)" style="stroke: rgb(0, 0, 0); stroke-opacity: 1; stroke-width: 1px; opacity: 1;" d="M597.495007797178,542.7244110210498L596.5022079936489,545.9053154564049L583.951467893548,546.7728348478654L583.979739943601,545.0377960649444L573.3178351401364,542.917193108041L574.7688536688022,538.3868140637474L579.6536752026329,542.0496737165806L586.3838355093773,541.3749364121113L592.9224707197914,542.1460647600761L592.7492361692885,544.0738856299884ZM593.305915174285,483.54031031474483L588.075131019242,483.251137184258L583.5891681072532,482.2872267493019L573.3947558593047,485.08256701067455L579.5072402128621,491.05881170740247L575.171755582667,492.79385049032345L570.3941644383823,492.79385049032345L565.7745739583931,487.2995610110737L564.221983938109,489.61294605496835L566.3219853593903,496.0711459691742L570.7087494948626,501.08348023094595L567.5239223158756,503.3968652748407L572.4648644596917,508.40919953661245L576.8214397000056,511.49371292847195L577.1560872975895,517.5663486686954L569.0657538466887,514.6746173638271L571.7803158080067,520.1689068430769L566.2771808336796,521.2292083215286L569.7929393137462,530.6755305840985L564.0902268642205,530.8683126710897L556.8783522875964,526.2415425833003L553.42723490989,517.662739712191L551.7283439000555,510.52980249351583L548.2978840012488,505.6138592752397L543.7744048545237,499.44483249152063L543.1808566613769,496.4567101431567L547.0155033342504,491.25159379439367L547.4855896666385,487.78151622855165L550.2213669645078,486.23925953262193L550.313332989214,483.34752822775357L555.896085441372,482.48000883629317L559.0579167965941,480.0702327489028L563.7390371887207,480.2630148358941L565.0677165621696,478.4315850094775L566.6652489209453,478.046020835495L572.9575424240867,478.4315850094775L579.672182143677,475.4434626611136L585.7781275735197,479.2027133574423L593.4748166146849,478.14241187899063L593.413512428257,472.8409044867321L597.6584748823791,475.6362447481048L595.2552357563499,482.3836177927975Z"></path><path class="choroplethlocation" fill="rgb(8, 76, 155)" style="stroke: rgb(0, 0, 0); stroke-opacity: 1; stroke-width: 1px; opacity: 1;" d="M459.0137156143475,331.9171988961492L459.04687413730437,336.0620137664605L467.02099269396757,338.56818089734634L466.79892041366725,342.4238226371708L474.88944112365647,340.399610723763L479.41465527575093,337.411488375399L488.2716064214185,341.6526942892059L492.034311202647,345.122771855048L493.8744438917585,350.52067029080206L491.6389549140732,353.4124015956704L494.50116135053725,357.1716522919992L496.50791197185254,362.9551149017359L495.8509098091904,366.61797455456906L499.1090278100363,373.4617386427575L495.54512833158344,374.6184311647048L493.43989411186254,373.3653475992618L491.3958811979452,375.3895595126696L485.55809035754004,377.51016246957306L482.5464559866002,380.1127206439546L476.60683696292944,382.42610568784926L477.9572281865972,385.6070101232043L478.78447352671276,390.137389167498L482.9439333807751,392.73994734187954L487.5444490739474,397.3667174296688L484.55949843181196,402.282660647945L481.59239025781795,403.63213525688354L482.7156228072575,410.5722903885676L481.9575122731423,412.4037202149841L479.38010041403,410.2831172580807L475.4534448691562,409.89755308409826L469.4908265056395,411.8253739540105L462.22482548265924,411.34341873653244L461.05474743699097,414.2351500414008L456.8832195685969,411.2470276930368L454.4207328720415,411.8253739540105L445.67786174391114,408.54807847515974L443.9067294382331,410.8614635190544L436.93507632786344,410.76507247555884L438.2183341624712,403.15018003940554L442.57994832207373,395.8244607337391L430.87460423185564,393.89663986382686L427.0882809517004,391.1012996024542L427.78971658247985,386.3781384711692L426.20435447382016,383.968362383779L427.45091291535766,376.73903412160826L426.54849177474387,365.46128203262185L431.3954723549657,365.46128203262185L433.58033706775603,361.41285820580606L435.9783464110135,351.6773628127495L434.6195452246334,348.0145031599162L436.28198193495405,345.7975091595172L442.94956872148583,345.21916289854346L444.2985795688693,347.5325479424381L449.90208509525485,342.2310405501795L448.17747884568024,338.27900776685954L448.02458299977104,332.20637202663613L453.9358291935438,333.55584663557454Z"></path><path class="choroplethlocation" fill="rgb(246, 245, 250)" style="stroke: rgb(0, 0, 0); stroke-opacity: 1; stroke-width: 1px; opacity: 1;"></path></g></g></g><g class="layer frontplot"><g class="scatterlayer"></g></g></g></g><g class="pielayer"></g><g class="glimages"></g></svg>
