<svg class="main-svg" xmlns="http://www.w3.org/2000/svg" xmlns:xlink="http://www.w3.org/1999/xlink" width="1100" height="600"><defs id="topdefs-528888"><g class="clips"></g></defs><g class="layer-above"><g class="imagelayer"></g><g class="shapelayer"></g></g><g class="infolayer"><g class="cbcccbf1 colorbar" transform="translate(0,10)"><rect class="cbbg" x="999.5" y="-0.5" width="88.05000305175781" height="591" style="fill: rgb(0, 0, 0); fill-opacity: 0; stroke: rgb(68, 68, 68); stroke-opacity: 1; stroke-width: 0;"></rect><g class="cbfills" transform="translate(0,10)"><rect class="cbfill" style="stroke: none;" x="1010" width="30" y="566" height="4" fill="#f5f4fa"></rect><rect class="cbfill" style="stroke: none;" x="1010" width="30" y="563" height="4" fill="#f4f4fa"></rect><rect class="cbfill" style="stroke: none;" x="1010" width="30" y="561" height="3" fill="#f3f3fa"></rect><rect class="cbfill" style="stroke: none;" x="1010" width="30" y="559" height="3" fill="#f1f3fa"></rect><rect class="cbfill" style="stroke: none;" x="1010" width="30" y="557" height="3" fill="#f0f2fa"></rect><rect class="cbfill" style="stroke: none;" x="1010" width="30" y="554" height="4" fill="#eff1fa"></rect><rect class="cbfill" style="stroke: none;" x="1010" width="30" y="552" height="3" fill="#eef1fa"></rect><rect class="cbfill" style="stroke: none;" x="1010" width="30" y="550" height="3" fill="#edf0fa"></rect><rect class="cbfill" style="stroke: none;" x="1010" width="30" y="548" height="3" fill="#ecf0fa"></rect><rect class="cbfill" style="stroke: none;" x="1010" width="30" y="545" height="4" fill="#eaeffa"></rect><rect class="cbfill" style="stroke: none;" x="1010" width="30" y="543" height="3" fill="#e9effa"></rect><rect class="cbfill" style="stroke: none;" x="1010" width="30" y="541" height="3" fill="#e8eefa"></rect><rect class="cbfill" style="stroke: none;" x="1010" width="30" y="539" height="3" fill="#e7edfa"></rect><rect class="cbfill" style="stroke: none;" x="1010" width="30" y="536" height="4" fill="#e6edfa"></rect><rect class="cbfill" style="stroke: none;" x="1010" width="30" y="534" height="3" fill="#e5ecfa"></rect><rect class="cbfill" style="stroke: none;" x="1010" width="30" y="532" height="3" fill="#e3ecfa"></rect><rect class="cbfill" style="stroke: none;" x="1010" width="30" y="530" height="3" fill="#e2ebfa"></rect><rect class="cbfill" style="stroke: none;" x="1010" width="30" y="527" height="4" fill="#e1eafa"></rect><rect class="cbfill" style="stroke: none;" x="1010" width="30" y="525" height="3" fill="#e0eafa"></rect><rect class="cbfill" style="stroke: none;" x="1010" width="30" y="523" height="3" fill="#dfe9fa"></rect><rect class="cbfill" style="stroke: none;" x="1010" width="30" y="521" height="3" fill="#dee9fa"></rect><rect class="cbfill" style="stroke: none;" x="1010" width="30" y="519" height="3" fill="#dce8fb"></rect><rect class="cbfill" style="stroke: none;" x="1010" width="30" y="516" height="4" fill="#dbe7fb"></rect><rect class="cbfill" style="stroke: none;" x="1010" width="30" y="514" height="3" fill="#dae7fb"></rect><rect class="cbfill" style="stroke: none;" x="1010" width="30" y="512" height="3" fill="#d9e6fb"></rect><rect class="cbfill" style="stroke: none;" x="1010" width="30" y="510" height="3" fill="#d8e6fb"></rect><rect class="cbfill" style="stroke: none;" x="1010" width="30" y="507" height="4" fill="#d7e5fb"></rect><rect class="cbfill" style="stroke: none;" x="1010" width="30" y="505" height="3" fill="#d5e4fb"></rect><rect class="cbfill" style="stroke: none;" x="1010" width="30" y="503" height="3" fill="#d4e4fb"></rect><rect class="cbfill" style="stroke: none;" x="1010" width="30" y="501" height="3" fill="#d3e3fb"></rect><rect class="cbfill" style="stroke: none;" x="1010" width="30" y="498" height="4" fill="#d2e3fb"></rect><rect class="cbfill" style="stroke: none;" x="1010" width="30" y="496" height="3" fill="#d1e2fb"></rect><rect class="cbfill" style="stroke: none;" x="1010" width="30" y="494" height="3" fill="#d0e2fb"></rect><rect class="cbfill" style="stroke: none;" x="1010" width="30" y="492" height="3" fill="#cee1fb"></rect><rect class="cbfill" style="stroke: none;" x="1010" width="30" y="489" height="4" fill="#cde0fb"></rect><rect class="cbfill" style="stroke: none;" x="1010" width="30" y="487" height="3" fill="#cce0fb"></rect><rect class="cbfill" style="stroke: none;" x="1010" width="30" y="485" height="3" fill="#cbdffb"></rect><rect class="cbfill" style="stroke: none;" x="1010" width="30" y="483" height="3" fill="#cadffb"></rect><rect class="cbfill" style="stroke: none;" x="1010" width="30" y="480" height="4" fill="#c9defb"></rect><rect class="cbfill" style="stroke: none;" x="1010" width="30" y="478" height="3" fill="#c7ddfb"></rect><rect class="cbfill" style="stroke: none;" x="1010" width="30" y="476" height="3" fill="#c6ddfb"></rect><rect class="cbfill" style="stroke: none;" x="1010" width="30" y="474" height="3" fill="#c5dcfb"></rect><rect class="cbfill" style="stroke: none;" x="1010" width="30" y="471" height="4" fill="#c4dcfb"></rect><rect class="cbfill" style="stroke: none;" x="1010" width="30" y="469" height="3" fill="#c3dbfb"></rect><rect class="cbfill" style="stroke: none;" x="1010" width="30" y="467" height="3" fill="#c2dafb"></rect><rect class="cbfill" style="stroke: none;" x="1010" width="30" y="465" height="3" fill="#c0dafb"></rect><rect class="cbfill" style="stroke: none;" x="1010" width="30" y="462" height="4" fill="#bfd9fb"></rect><rect class="cbfill" style="stroke: none;" x="1010" width="30" y="460" height="3" fill="#bed9fb"></rect><rect class="cbfill" style="stroke: none;" x="1010" width="30" y="458" height="3" fill="#bdd8fb"></rect><rect class="cbfill" style="stroke: none;" x="1010" width="30" y="456" height="3" fill="#bcd7fb"></rect><rect class="cbfill" style="stroke: none;" x="1010" width="30" y="453" height="4" fill="#bbd7fb"></rect><rect class="cbfill" style="stroke: none;" x="1010" width="30" y="451" height="3" fill="#b9d6fb"></rect><rect class="cbfill" style="stroke: none;" x="1010" width="30" y="449" height="3" fill="#b8d6fb"></rect><rect class="cbfill" style="stroke: none;" x="1010" width="30" y="447" height="3" fill="#b7d5fb"></rect><rect class="cbfill" style="stroke: none;" x="1010" width="30" y="444" height="4" fill="#b6d5fb"></rect><rect class="cbfill" style="stroke: none;" x="1010" width="30" y="442" height="3" fill="#b5d4fb"></rect><rect class="cbfill" style="stroke: none;" x="1010" width="30" y="440" height="3" fill="#b4d3fb"></rect><rect class="cbfill" style="stroke: none;" x="1010" width="30" y="438" height="3" fill="#b2d3fb"></rect><rect class="cbfill" style="stroke: none;" x="1010" width="30" y="435" height="4" fill="#b1d2fb"></rect><rect class="cbfill" style="stroke: none;" x="1010" width="30" y="433" height="3" fill="#b0d2fb"></rect><rect class="cbfill" style="stroke: none;" x="1010" width="30" y="431" height="3" fill="#afd1fb"></rect><rect class="cbfill" style="stroke: none;" x="1010" width="30" y="429" height="3" fill="#aed0fb"></rect><rect class="cbfill" style="stroke: none;" x="1010" width="30" y="427" height="3" fill="#add0fb"></rect><rect class="cbfill" style="stroke: none;" x="1010" width="30" y="424" height="4" fill="#abcffc"></rect><rect class="cbfill" style="stroke: none;" x="1010" width="30" y="422" height="3" fill="#aacffc"></rect><rect class="cbfill" style="stroke: none;" x="1010" width="30" y="420" height="3" fill="#a9cefc"></rect><rect class="cbfill" style="stroke: none;" x="1010" width="30" y="418" height="3" fill="#a8cdfc"></rect><rect class="cbfill" style="stroke: none;" x="1010" width="30" y="415" height="4" fill="#a7cdfc"></rect><rect class="cbfill" style="stroke: none;" x="1010" width="30" y="413" height="3" fill="#a6ccfc"></rect><rect class="cbfill" style="stroke: none;" x="1010" width="30" y="411" height="3" fill="#a4ccfc"></rect><rect class="cbfill" style="stroke: none;" x="1010" width="30" y="409" height="3" fill="#a3cbfc"></rect><rect class="cbfill" style="stroke: none;" x="1010" width="30" y="406" height="4" fill="#a2cafc"></rect><rect class="cbfill" style="stroke: none;" x="1010" width="30" y="404" height="3" fill="#a1cafc"></rect><rect class="cbfill" style="stroke: none;" x="1010" width="30" y="402" height="3" fill="#a0c9fc"></rect><rect class="cbfill" style="stroke: none;" x="1010" width="30" y="400" height="3" fill="#9fc9fc"></rect><rect class="cbfill" style="stroke: none;" x="1010" width="30" y="397" height="4" fill="#9dc8fc"></rect><rect class="cbfill" style="stroke: none;" x="1010" width="30" y="395" height="3" fill="#9cc8fc"></rect><rect class="cbfill" style="stroke: none;" x="1010" width="30" y="393" height="3" fill="#9bc7fc"></rect><rect class="cbfill" style="stroke: none;" x="1010" width="30" y="391" height="3" fill="#9ac6fc"></rect><rect class="cbfill" style="stroke: none;" x="1010" width="30" y="388" height="4" fill="#99c6fc"></rect><rect class="cbfill" style="stroke: none;" x="1010" width="30" y="386" height="3" fill="#98c5fc"></rect><rect class="cbfill" style="stroke: none;" x="1010" width="30" y="384" height="3" fill="#96c5fc"></rect><rect class="cbfill" style="stroke: none;" x="1010" width="30" y="382" height="3" fill="#95c4fc"></rect><rect class="cbfill" style="stroke: none;" x="1010" width="30" y="379" height="4" fill="#94c3fc"></rect><rect class="cbfill" style="stroke: none;" x="1010" width="30" y="377" height="3" fill="#93c3fc"></rect><rect class="cbfill" style="stroke: none;" x="1010" width="30" y="375" height="3" fill="#92c2fc"></rect><rect class="cbfill" style="stroke: none;" x="1010" width="30" y="373" height="3" fill="#91c2fc"></rect><rect class="cbfill" style="stroke: none;" x="1010" width="30" y="370" height="4" fill="#8fc1fc"></rect><rect class="cbfill" style="stroke: none;" x="1010" width="30" y="368" height="3" fill="#8ec0fc"></rect><rect class="cbfill" style="stroke: none;" x="1010" width="30" y="366" height="3" fill="#8dc0fc"></rect><rect class="cbfill" style="stroke: none;" x="1010" width="30" y="364" height="3" fill="#8cbffc"></rect><rect class="cbfill" style="stroke: none;" x="1010" width="30" y="361" height="4" fill="#8bbffc"></rect><rect class="cbfill" style="stroke: none;" x="1010" width="30" y="359" height="3" fill="#8abefc"></rect><rect class="cbfill" style="stroke: none;" x="1010" width="30" y="357" height="3" fill="#88bdfc"></rect><rect class="cbfill" style="stroke: none;" x="1010" width="30" y="355" height="3" fill="#87bdfc"></rect><rect class="cbfill" style="stroke: none;" x="1010" width="30" y="352" height="4" fill="#86bcfc"></rect><rect class="cbfill" style="stroke: none;" x="1010" width="30" y="350" height="3" fill="#85bcfc"></rect><rect class="cbfill" style="stroke: none;" x="1010" width="30" y="348" height="3" fill="#84bbfc"></rect><rect class="cbfill" style="stroke: none;" x="1010" width="30" y="346" height="3" fill="#83bbfc"></rect><rect class="cbfill" style="stroke: none;" x="1010" width="30" y="343" height="4" fill="#81bafc"></rect><rect class="cbfill" style="stroke: none;" x="1010" width="30" y="341" height="3" fill="#80b9fc"></rect><rect class="cbfill" style="stroke: none;" x="1010" width="30" y="339" height="3" fill="#7fb9fc"></rect><rect class="cbfill" style="stroke: none;" x="1010" width="30" y="337" height="3" fill="#7eb8fc"></rect><rect class="cbfill" style="stroke: none;" x="1010" width="30" y="334" height="4" fill="#7db8fc"></rect><rect class="cbfill" style="stroke: none;" x="1010" width="30" y="332" height="3" fill="#7cb7fc"></rect><rect class="cbfill" style="stroke: none;" x="1010" width="30" y="330" height="3" fill="#7ab6fd"></rect><rect class="cbfill" style="stroke: none;" x="1010" width="30" y="328" height="3" fill="#79b6fd"></rect><rect class="cbfill" style="stroke: none;" x="1010" width="30" y="326" height="3" fill="#78b5fd"></rect><rect class="cbfill" style="stroke: none;" x="1010" width="30" y="323" height="4" fill="#77b5fd"></rect><rect class="cbfill" style="stroke: none;" x="1010" width="30" y="321" height="3" fill="#76b4fd"></rect><rect class="cbfill" style="stroke: none;" x="1010" width="30" y="319" height="3" fill="#75b3fd"></rect><rect class="cbfill" style="stroke: none;" x="1010" width="30" y="317" height="3" fill="#73b3fd"></rect><rect class="cbfill" style="stroke: none;" x="1010" width="30" y="314" height="4" fill="#72b2fd"></rect><rect class="cbfill" style="stroke: none;" x="1010" width="30" y="312" height="3" fill="#71b2fd"></rect><rect class="cbfill" style="stroke: none;" x="1010" width="30" y="310" height="3" fill="#70b1fd"></rect><rect class="cbfill" style="stroke: none;" x="1010" width="30" y="308" height="3" fill="#6fb0fd"></rect><rect class="cbfill" style="stroke: none;" x="1010" width="30" y="305" height="4" fill="#6eb0fd"></rect><rect class="cbfill" style="stroke: none;" x="1010" width="30" y="303" height="3" fill="#6caffd"></rect><rect class="cbfill" style="stroke: none;" x="1010" width="30" y="301" height="3" fill="#6baffd"></rect><rect class="cbfill" style="stroke: none;" x="1010" width="30" y="299" height="3" fill="#6aaefd"></rect><rect class="cbfill" style="stroke: none;" x="1010" width="30" y="296" height="4" fill="#69aefd"></rect><rect class="cbfill" style="stroke: none;" x="1010" width="30" y="294" height="3" fill="#68adfd"></rect><rect class="cbfill" style="stroke: none;" x="1010" width="30" y="292" height="3" fill="#67acfd"></rect><rect class="cbfill" style="stroke: none;" x="1010" width="30" y="290" height="3" fill="#65acfd"></rect><rect class="cbfill" style="stroke: none;" x="1010" width="30" y="287" height="4" fill="#64abfd"></rect><rect class="cbfill" style="stroke: none;" x="1010" width="30" y="285" height="3" fill="#63abfd"></rect><rect class="cbfill" style="stroke: none;" x="1010" width="30" y="283" height="3" fill="#62aafd"></rect><rect class="cbfill" style="stroke: none;" x="1010" width="30" y="281" height="3" fill="#61a9fc"></rect><rect class="cbfill" style="stroke: none;" x="1010" width="30" y="278" height="4" fill="#60a8fb"></rect><rect class="cbfill" style="stroke: none;" x="1010" width="30" y="276" height="3" fill="#60a8fb"></rect><rect class="cbfill" style="stroke: none;" x="1010" width="30" y="274" height="3" fill="#5fa7fa"></rect><rect class="cbfill" style="stroke: none;" x="1010" width="30" y="272" height="3" fill="#5ea6f9"></rect><rect class="cbfill" style="stroke: none;" x="1010" width="30" y="269" height="4" fill="#5da5f8"></rect><rect class="cbfill" style="stroke: none;" x="1010" width="30" y="267" height="3" fill="#5da4f7"></rect><rect class="cbfill" style="stroke: none;" x="1010" width="30" y="265" height="3" fill="#5ca4f6"></rect><rect class="cbfill" style="stroke: none;" x="1010" width="30" y="263" height="3" fill="#5ba3f6"></rect><rect class="cbfill" style="stroke: none;" x="1010" width="30" y="260" height="4" fill="#5aa2f5"></rect><rect class="cbfill" style="stroke: none;" x="1010" width="30" y="258" height="3" fill="#5aa1f4"></rect><rect class="cbfill" style="stroke: none;" x="1010" width="30" y="256" height="3" fill="#59a0f3"></rect><rect class="cbfill" style="stroke: none;" x="1010" width="30" y="254" height="3" fill="#58a0f2"></rect><rect class="cbfill" style="stroke: none;" x="1010" width="30" y="251" height="4" fill="#579ff1"></rect><rect class="cbfill" style="stroke: none;" x="1010" width="30" y="249" height="3" fill="#579ef1"></rect><rect class="cbfill" style="stroke: none;" x="1010" width="30" y="247" height="3" fill="#569df0"></rect><rect class="cbfill" style="stroke: none;" x="1010" width="30" y="245" height="3" fill="#559cef"></rect><rect class="cbfill" style="stroke: none;" x="1010" width="30" y="242" height="4" fill="#549cee"></rect><rect class="cbfill" style="stroke: none;" x="1010" width="30" y="240" height="3" fill="#549bed"></rect><rect class="cbfill" style="stroke: none;" x="1010" width="30" y="238" height="3" fill="#539aec"></rect><rect class="cbfill" style="stroke: none;" x="1010" width="30" y="236" height="3" fill="#5299ec"></rect><rect class="cbfill" style="stroke: none;" x="1010" width="30" y="234" height="3" fill="#5199eb"></rect><rect class="cbfill" style="stroke: none;" x="1010" width="30" y="231" height="4" fill="#5198ea"></rect><rect class="cbfill" style="stroke: none;" x="1010" width="30" y="229" height="3" fill="#5097e9"></rect><rect class="cbfill" style="stroke: none;" x="1010" width="30" y="227" height="3" fill="#4f96e8"></rect><rect class="cbfill" style="stroke: none;" x="1010" width="30" y="225" height="3" fill="#4e95e8"></rect><rect class="cbfill" style="stroke: none;" x="1010" width="30" y="222" height="4" fill="#4e95e7"></rect><rect class="cbfill" style="stroke: none;" x="1010" width="30" y="220" height="3" fill="#4d94e6"></rect><rect class="cbfill" style="stroke: none;" x="1010" width="30" y="218" height="3" fill="#4c93e5"></rect><rect class="cbfill" style="stroke: none;" x="1010" width="30" y="216" height="3" fill="#4b92e4"></rect><rect class="cbfill" style="stroke: none;" x="1010" width="30" y="213" height="4" fill="#4b91e3"></rect><rect class="cbfill" style="stroke: none;" x="1010" width="30" y="211" height="3" fill="#4a91e3"></rect><rect class="cbfill" style="stroke: none;" x="1010" width="30" y="209" height="3" fill="#4990e2"></rect><rect class="cbfill" style="stroke: none;" x="1010" width="30" y="207" height="3" fill="#488fe1"></rect><rect class="cbfill" style="stroke: none;" x="1010" width="30" y="204" height="4" fill="#488ee0"></rect><rect class="cbfill" style="stroke: none;" x="1010" width="30" y="202" height="3" fill="#478ddf"></rect><rect class="cbfill" style="stroke: none;" x="1010" width="30" y="200" height="3" fill="#468dde"></rect><rect class="cbfill" style="stroke: none;" x="1010" width="30" y="198" height="3" fill="#458cde"></rect><rect class="cbfill" style="stroke: none;" x="1010" width="30" y="195" height="4" fill="#458bdd"></rect><rect class="cbfill" style="stroke: none;" x="1010" width="30" y="193" height="3" fill="#448adc"></rect><rect class="cbfill" style="stroke: none;" x="1010" width="30" y="191" height="3" fill="#4389db"></rect><rect class="cbfill" style="stroke: none;" x="1010" width="30" y="189" height="3" fill="#4289da"></rect><rect class="cbfill" style="stroke: none;" x="1010" width="30" y="186" height="4" fill="#4188d9"></rect><rect class="cbfill" style="stroke: none;" x="1010" width="30" y="184" height="3" fill="#4187d9"></rect><rect class="cbfill" style="stroke: none;" x="1010" width="30" y="182" height="3" fill="#4086d8"></rect><rect class="cbfill" style="stroke: none;" x="1010" width="30" y="180" height="3" fill="#3f85d7"></rect><rect class="cbfill" style="stroke: none;" x="1010" width="30" y="177" height="4" fill="#3e85d6"></rect><rect class="cbfill" style="stroke: none;" x="1010" width="30" y="175" height="3" fill="#3e84d5"></rect><rect class="cbfill" style="stroke: none;" x="1010" width="30" y="173" height="3" fill="#3d83d4"></rect><rect class="cbfill" style="stroke: none;" x="1010" width="30" y="171" height="3" fill="#3c82d4"></rect><rect class="cbfill" style="stroke: none;" x="1010" width="30" y="168" height="4" fill="#3b81d3"></rect><rect class="cbfill" style="stroke: none;" x="1010" width="30" y="166" height="3" fill="#3b81d2"></rect><rect class="cbfill" style="stroke: none;" x="1010" width="30" y="164" height="3" fill="#3a80d1"></rect><rect class="cbfill" style="stroke: none;" x="1010" width="30" y="162" height="3" fill="#397fd0"></rect><rect class="cbfill" style="stroke: none;" x="1010" width="30" y="159" height="4" fill="#387ed0"></rect><rect class="cbfill" style="stroke: none;" x="1010" width="30" y="157" height="3" fill="#387dcf"></rect><rect class="cbfill" style="stroke: none;" x="1010" width="30" y="155" height="3" fill="#377dce"></rect><rect class="cbfill" style="stroke: none;" x="1010" width="30" y="153" height="3" fill="#367ccd"></rect><rect class="cbfill" style="stroke: none;" x="1010" width="30" y="150" height="4" fill="#357bcc"></rect><rect class="cbfill" style="stroke: none;" x="1010" width="30" y="148" height="3" fill="#357acb"></rect><rect class="cbfill" style="stroke: none;" x="1010" width="30" y="146" height="3" fill="#3479cb"></rect><rect class="cbfill" style="stroke: none;" x="1010" width="30" y="144" height="3" fill="#3379ca"></rect><rect class="cbfill" style="stroke: none;" x="1010" width="30" y="142" height="3" fill="#3278c9"></rect><rect class="cbfill" style="stroke: none;" x="1010" width="30" y="139" height="4" fill="#3277c8"></rect><rect class="cbfill" style="stroke: none;" x="1010" width="30" y="137" height="3" fill="#3176c7"></rect><rect class="cbfill" style="stroke: none;" x="1010" width="30" y="135" height="3" fill="#3076c6"></rect><rect class="cbfill" style="stroke: none;" x="1010" width="30" y="133" height="3" fill="#2f75c6"></rect><rect class="cbfill" style="stroke: none;" x="1010" width="30" y="130" height="4" fill="#2f74c5"></rect><rect class="cbfill" style="stroke: none;" x="1010" width="30" y="128" height="3" fill="#2e73c4"></rect><rect class="cbfill" style="stroke: none;" x="1010" width="30" y="126" height="3" fill="#2d72c3"></rect><rect class="cbfill" style="stroke: none;" x="1010" width="30" y="124" height="3" fill="#2c72c2"></rect><rect class="cbfill" style="stroke: none;" x="1010" width="30" y="121" height="4" fill="#2c71c1"></rect><rect class="cbfill" style="stroke: none;" x="1010" width="30" y="119" height="3" fill="#2b70c1"></rect><rect class="cbfill" style="stroke: none;" x="1010" width="30" y="117" height="3" fill="#2a6fc0"></rect><rect class="cbfill" style="stroke: none;" x="1010" width="30" y="115" height="3" fill="#296ebf"></rect><rect class="cbfill" style="stroke: none;" x="1010" width="30" y="112" height="4" fill="#296ebe"></rect><rect class="cbfill" style="stroke: none;" x="1010" width="30" y="110" height="3" fill="#286dbd"></rect><rect class="cbfill" style="stroke: none;" x="1010" width="30" y="108" height="3" fill="#276cbd"></rect><rect class="cbfill" style="stroke: none;" x="1010" width="30" y="106" height="3" fill="#266bbc"></rect><rect class="cbfill" style="stroke: none;" x="1010" width="30" y="103" height="4" fill="#266abb"></rect><rect class="cbfill" style="stroke: none;" x="1010" width="30" y="101" height="3" fill="#256aba"></rect><rect class="cbfill" style="stroke: none;" x="1010" width="30" y="99" height="3" fill="#2469b9"></rect><rect class="cbfill" style="stroke: none;" x="1010" width="30" y="97" height="3" fill="#2368b8"></rect><rect class="cbfill" style="stroke: none;" x="1010" width="30" y="94" height="4" fill="#2367b8"></rect><rect class="cbfill" style="stroke: none;" x="1010" width="30" y="92" height="3" fill="#2266b7"></rect><rect class="cbfill" style="stroke: none;" x="1010" width="30" y="90" height="3" fill="#2166b6"></rect><rect class="cbfill" style="stroke: none;" x="1010" width="30" y="88" height="3" fill="#2065b5"></rect><rect class="cbfill" style="stroke: none;" x="1010" width="30" y="85" height="4" fill="#1f64b4"></rect><rect class="cbfill" style="stroke: none;" x="1010" width="30" y="83" height="3" fill="#1f63b3"></rect><rect class="cbfill" style="stroke: none;" x="1010" width="30" y="81" height="3" fill="#1e62b3"></rect><rect class="cbfill" style="stroke: none;" x="1010" width="30" y="79" height="3" fill="#1d62b2"></rect><rect class="cbfill" style="stroke: none;" x="1010" width="30" y="76" height="4" fill="#1c61b1"></rect><rect class="cbfill" style="stroke: none;" x="1010" width="30" y="74" height="3" fill="#1c60b0"></rect><rect class="cbfill" style="stroke: none;" x="1010" width="30" y="72" height="3" fill="#1b5faf"></rect><rect class="cbfill" style="stroke: none;" x="1010" width="30" y="70" height="3" fill="#1a5eae"></rect><rect class="cbfill" style="stroke: none;" x="1010" width="30" y="67" height="4" fill="#195eae"></rect><rect class="cbfill" style="stroke: none;" x="1010" width="30" y="65" height="3" fill="#195dad"></rect><rect class="cbfill" style="stroke: none;" x="1010" width="30" y="63" height="3" fill="#185cac"></rect><rect class="cbfill" style="stroke: none;" x="1010" width="30" y="61" height="3" fill="#175bab"></rect><rect class="cbfill" style="stroke: none;" x="1010" width="30" y="58" height="4" fill="#165aaa"></rect><rect class="cbfill" style="stroke: none;" x="1010" width="30" y="56" height="3" fill="#165aa9"></rect><rect class="cbfill" style="stroke: none;" x="1010" width="30" y="54" height="3" fill="#1559a9"></rect><rect class="cbfill" style="stroke: none;" x="1010" width="30" y="52" height="3" fill="#1458a8"></rect><rect class="cbfill" style="stroke: none;" x="1010" width="30" y="49" height="4" fill="#1357a7"></rect><rect class="cbfill" style="stroke: none;" x="1010" width="30" y="47" height="3" fill="#1356a6"></rect><rect class="cbfill" style="stroke: none;" x="1010" width="30" y="45" height="3" fill="#1256a5"></rect><rect class="cbfill" style="stroke: none;" x="1010" width="30" y="43" height="3" fill="#1155a5"></rect><rect class="cbfill" style="stroke: none;" x="1010" width="30" y="41" height="3" fill="#1054a4"></rect><rect class="cbfill" style="stroke: none;" x="1010" width="30" y="38" height="4" fill="#1053a3"></rect><rect class="cbfill" style="stroke: none;" x="1010" width="30" y="36" height="3" fill="#0f53a2"></rect><rect class="cbfill" style="stroke: none;" x="1010" width="30" y="34" height="3" fill="#0e52a1"></rect><rect class="cbfill" style="stroke: none;" x="1010" width="30" y="32" height="3" fill="#0d51a0"></rect><rect class="cbfill" style="stroke: none;" x="1010" width="30" y="29" height="4" fill="#0d50a0"></rect><rect class="cbfill" style="stroke: none;" x="1010" width="30" y="27" height="3" fill="#0c4f9f"></rect><rect class="cbfill" style="stroke: none;" x="1010" width="30" y="25" height="3" fill="#0b4f9e"></rect><rect class="cbfill" style="stroke: none;" x="1010" width="30" y="23" height="3" fill="#0a4e9d"></rect><rect class="cbfill" style="stroke: none;" x="1010" width="30" y="20" height="4" fill="#0a4d9c"></rect><rect class="cbfill" style="stroke: none;" x="1010" width="30" y="18" height="3" fill="#094c9b"></rect><rect class="cbfill" style="stroke: none;" x="1010" width="30" y="16" height="3" fill="#084b9b"></rect><rect class="cbfill" style="stroke: none;" x="1010" width="30" y="14" height="3" fill="#074b9a"></rect><rect class="cbfill" style="stroke: none;" x="1010" width="30" y="11" height="4" fill="#074a99"></rect><rect class="cbfill" style="stroke: none;" x="1010" width="30" y="9" height="3" fill="#064998"></rect><rect class="cbfill" style="stroke: none;" x="1010" width="30" y="7" height="3" fill="#054897"></rect><rect class="cbfill" style="stroke: none;" x="1010" width="30" y="5" height="3" fill="#044796"></rect><rect class="cbfill" style="stroke: none;" x="1010" width="30" y="2" height="4" fill="#044796"></rect><rect class="cbfill" style="stroke: none;" x="1010" width="30" y="0" height="3" fill="#034695"></rect></g><g class="cblines" transform="translate(0,10)"></g><g class="cbaxis crisp" transform="translate(0,-10)"><g class="ycbcccbf1tick"><text text-anchor="start" x="1043.4" y="4.199999999999999" style="font-family: &quot;Open Sans&quot;, verdana, arial, sans-serif; font-size: 12px; fill: rgb(68, 68, 68); fill-opacity: 1; white-space: pre;" data-unformatted="0" data-math="N" transform="translate(0,590.03)">0</text></g><g class="ycbcccbf1tick"><text text-anchor="start" x="1043.4" y="4.199999999999999" style="font-family: &quot;Open Sans&quot;, verdana, arial, sans-serif; font-size: 12px; fill: rgb(68, 68, 68); fill-opacity: 1; white-space: pre;" data-unformatted="20M" data-math="N" transform="translate(0,528.26)">20M</text></g><g class="ycbcccbf1tick"><text text-anchor="start" x="1043.4" y="4.199999999999999" style="font-family: &quot;Open Sans&quot;, verdana, arial, sans-serif; font-size: 12px; fill: rgb(68, 68, 68); fill-opacity: 1; white-space: pre;" data-unformatted="40M" data-math="N" transform="translate(0,466.49)">40M</text></g><g class="ycbcccbf1tick"><text text-anchor="start" x="1043.4" y="4.199999999999999" style="font-family: &quot;Open Sans&quot;, verdana, arial, sans-serif; font-size: 12px; fill: rgb(68, 68, 68); fill-opacity: 1; white-space: pre;" data-unformatted="60M" data-math="N" transform="translate(0,404.72)">60M</text></g><g class="ycbcccbf1tick"><text text-anchor="start" x="1043.4" y="4.199999999999999" style="font-family: &quot;Open Sans&quot;, verdana, arial, sans-serif; font-size: 12px; fill: rgb(68, 68, 68); fill-opacity: 1; white-space: pre;" data-unformatted="80M" data-math="N" transform="translate(0,342.94999999999993)">80M</text></g><g class="ycbcccbf1tick"><text text-anchor="start" x="1043.4" y="4.199999999999999" style="font-family: &quot;Open Sans&quot;, verdana, arial, sans-serif; font-size: 12px; fill: rgb(68, 68, 68); fill-opacity: 1; white-space: pre;" data-unformatted="100M" data-math="N" transform="translate(0,281.17999999999995)">100M</text></g><g class="ycbcccbf1tick"><text text-anchor="start" x="1043.4" y="4.199999999999999" style="font-family: &quot;Open Sans&quot;, verdana, arial, sans-serif; font-size: 12px; fill: rgb(68, 68, 68); fill-opacity: 1; white-space: pre;" data-unformatted="120M" data-math="N" transform="translate(0,219.40999999999997)">120M</text></g><g class="ycbcccbf1tick"><text text-anchor="start" x="1043.4" y="4.199999999999999" style="font-family: &quot;Open Sans&quot;, verdana, arial, sans-serif; font-size: 12px; fill: rgb(68, 68, 68); fill-opacity: 1; white-space: pre;" data-unformatted="140M" data-math="N" transform="translate(0,157.63999999999996)">140M</text></g><g class="ycbcccbf1tick"><text text-anchor="start" x="1043.4" y="4.199999999999999" style="font-family: &quot;Open Sans&quot;, verdana, arial, sans-serif; font-size: 12px; fill: rgb(68, 68, 68); fill-opacity: 1; white-space: pre;" data-unformatted="160M" data-math="N" transform="translate(0,95.86999999999998)">160M</text></g><g class="ycbcccbf1tick"><text text-anchor="start" x="1043.4" y="4.199999999999999" style="font-family: &quot;Open Sans&quot;, verdana, arial, sans-serif; font-size: 12px; fill: rgb(68, 68, 68); fill-opacity: 1; white-space: pre;" data-unformatted="180M" data-math="N" transform="translate(0,34.09999999999997)">180M</text></g></g><g class="cbtitleunshift" transform="translate(-0,-10)"><g class="cbtitle"></g></g><rect class="cboutline" x="1010" y="10" width="30" height="570" style="stroke: rgb(68, 68, 68); stroke-opacity: 1; fill: none; stroke-width: 1;"></rect></g><g class="g-gtitle"></g></g><g class="menulayer"></g><g class="zoomlayer"></g><g class="hoverlayer"></g></svg>
