<?xml version="1.0" encoding="UTF-8" standalone="no"?>
<svg
   xmlns:dc="http://purl.org/dc/elements/1.1/"
   xmlns:cc="http://creativecommons.org/ns#"
   xmlns:rdf="http://www.w3.org/1999/02/22-rdf-syntax-ns#"
   xmlns:svg="http://www.w3.org/2000/svg"
   xmlns="http://www.w3.org/2000/svg"
   id="svg8"
   version="1.1"
   viewBox="0 0 330 153"
   height="153mm"
   width="330mm">
  <defs
     id="defs2">
    <clipPath
       clipPathUnits="userSpaceOnUse"
       id="clipPath82">
      <path
         d="m 250.866,258.425 h 77.244 v 52.441 h -77.244 z"
         id="path80" />
    </clipPath>
    <clipPath
       clipPathUnits="userSpaceOnUse"
       id="clipPath112">
      <path
         d="m 90.708,258.425 h 77.244 v 52.441 H 90.708 Z"
         id="path110" />
    </clipPath>
    <clipPath
       clipPathUnits="userSpaceOnUse"
       id="clipPath178">
      <path
         d="m 376.799,423.332 24.249,-15.747 10.751,16.555 -24.248,15.748 z"
         id="path176" />
    </clipPath>
    <clipPath
       clipPathUnits="userSpaceOnUse"
       id="clipPath194">
      <path
         d="m 378.218,422.411 10.706,-6.953 10.706,-6.952 10.751,16.555 -21.413,13.906 z"
         id="path192" />
    </clipPath>
    <clipPath
       clipPathUnits="userSpaceOnUse"
       id="clipPath210">
      <path
         d="M 0,0 H 997.795 V 708.661 H 0 Z"
         id="path208" />
    </clipPath>
    <clipPath
       clipPathUnits="userSpaceOnUse"
       id="clipPath230">
      <path
         d="M 0,0 H 997.795 V 708.661 H 0 Z"
         id="path228" />
    </clipPath>
    <clipPath
       clipPathUnits="userSpaceOnUse"
       id="clipPath250">
      <path
         d="M 0,0 H 997.795 V 708.661 H 0 Z"
         id="path248" />
    </clipPath>
    <clipPath
       clipPathUnits="userSpaceOnUse"
       id="clipPath318">
      <path
         d="m 655.218,303.784 h 49.688 v 49.805 h -49.688 z"
         id="path316" />
    </clipPath>
    <clipPath
       clipPathUnits="userSpaceOnUse"
       id="clipPath330">
      <path
         d="m 647.716,303.78 h 64.701 v 49.819 h -64.701 z"
         id="path328" />
    </clipPath>
    <clipPath
       clipPathUnits="userSpaceOnUse"
       id="clipPath358">
      <path
         d="m 569.056,174.59 h 64.7 v 49.819 h -64.7 z"
         id="path356" />
    </clipPath>
    <clipPath
       clipPathUnits="userSpaceOnUse"
       id="clipPath406">
      <path
         d="m 571.89,431.339 h 64.701 v 49.819 H 571.89 Z"
         id="path404" />
    </clipPath>
    <clipPath
       clipPathUnits="userSpaceOnUse"
       id="clipPath418">
      <path
         d="M 0,0 H 997.795 V 708.661 H 0 Z"
         id="path416" />
    </clipPath>
    <clipPath
       clipPathUnits="userSpaceOnUse"
       id="clipPath438">
      <path
         d="M 0,0 H 997.795 V 708.661 H 0 Z"
         id="path436" />
    </clipPath>
    <clipPath
       clipPathUnits="userSpaceOnUse"
       id="clipPath458">
      <path
         d="M 0,0 H 997.795 V 708.661 H 0 Z"
         id="path456" />
    </clipPath>
  </defs>
  <metadata
     id="metadata5">
    <rdf:RDF>
      <cc:Work
         rdf:about="">
        <dc:format>image/svg+xml</dc:format>
        <dc:type
           rdf:resource="http://purl.org/dc/dcmitype/StillImage" />
        <dc:title></dc:title>
      </cc:Work>
    </rdf:RDF>
  </metadata>
  <g
     transform="translate(0,-144)"
     id="layer1">
    <g
       id="g18"
       transform="matrix(0.35277777,0,0,-0.35277777,-12.296515,348.14698)">
      <g
         id="g20"
         transform="translate(315.4971,496.011)">
        <path
           d="M 0,0 26.362,-42.803"
           style="fill:none;stroke:#274695;stroke-width:1.5;stroke-linecap:butt;stroke-linejoin:miter;stroke-miterlimit:4;stroke-dasharray:none;stroke-opacity:1"
           id="path22" />
      </g>
      <g
         id="g24"
         transform="translate(315.3575,326.3145)">
        <path
           d="M 0,0 26.646,43.654"
           style="fill:none;stroke:#274695;stroke-width:1.5;stroke-linecap:butt;stroke-linejoin:miter;stroke-miterlimit:4;stroke-dasharray:none;stroke-opacity:1"
           id="path26" />
      </g>
      <g
         id="g28"
         transform="translate(156.9719,327.0405)">
        <path
           d="m 0,0 h -52.381 l -26.191,-42.639 26.191,-42.64 H 0 l 26.191,42.64 z"
           style="fill:#ffffff;fill-opacity:1;fill-rule:nonzero;stroke:none"
           id="path30" />
      </g>
      <g
         id="g32"
         transform="translate(156.9719,327.0405)">
        <path
           d="m 0,0 h -52.381 l -26.191,-42.639 26.191,-42.64 H 0 l 26.191,42.64 z"
           style="fill:none;stroke:#274596;stroke-width:1.5;stroke-linecap:butt;stroke-linejoin:miter;stroke-miterlimit:4;stroke-dasharray:none;stroke-opacity:1"
           id="path34" />
      </g>
      <g
         id="g36"
         transform="translate(393.7026,454.4331)">
        <path
           d="m 0,0 h -52.381 l -26.191,-42.639 26.191,-42.64 H 0 l 26.191,42.64 z"
           style="fill:#ffffff;fill-opacity:1;fill-rule:nonzero;stroke:none"
           id="path38" />
      </g>
      <g
         id="g40"
         transform="translate(393.7026,454.4331)">
        <path
           d="m 0,0 h -52.381 l -26.191,-42.639 26.191,-42.64 H 0 l 26.191,42.64 z"
           style="fill:none;stroke:#274596;stroke-width:1.5;stroke-linecap:butt;stroke-linejoin:miter;stroke-miterlimit:4;stroke-dasharray:none;stroke-opacity:1"
           id="path42" />
      </g>
      <g
         id="g44"
         transform="translate(182.5701,284.3179)">
        <path
           d="M 0,0 H 54.425"
           style="fill:none;stroke:#274695;stroke-width:1.5;stroke-linecap:butt;stroke-linejoin:miter;stroke-miterlimit:4;stroke-dasharray:none;stroke-opacity:1"
           id="path46" />
      </g>
      <g
         id="g48"
         transform="translate(315.4853,326.4509)">
        <path
           d="m 0,0 h -52.381 l -26.191,-42.639 26.191,-42.64 H 0 l 26.191,42.64 z"
           style="fill:#ffffff;fill-opacity:1;fill-rule:nonzero;stroke:none"
           id="path50" />
      </g>
      <g
         id="g52"
         transform="translate(315.4853,326.4509)">
        <path
           d="m 0,0 h -52.381 l -26.191,-42.639 26.191,-42.64 H 0 l 26.191,42.64 z"
           style="fill:none;stroke:#274596;stroke-width:1.5;stroke-linecap:butt;stroke-linejoin:miter;stroke-miterlimit:4;stroke-dasharray:none;stroke-opacity:1"
           id="path54" />
      </g>
      <g
         id="g56"
         transform="translate(315.3527,241.4351)">
        <path
           d="M 0,0 26.362,-42.803"
           style="fill:none;stroke:#274695;stroke-width:1.5;stroke-linecap:butt;stroke-linejoin:miter;stroke-miterlimit:4;stroke-dasharray:none;stroke-opacity:1"
           id="path58" />
      </g>
      <g
         id="g60"
         transform="translate(393.8772,454.2031)">
        <path
           d="M 0,0 26.646,43.654"
           style="fill:none;stroke:#274695;stroke-width:1.5;stroke-linecap:butt;stroke-linejoin:miter;stroke-miterlimit:4;stroke-dasharray:none;stroke-opacity:1"
           id="path62" />
      </g>
      <g
         id="g64"
         transform="translate(419.6693,497.3779)">
        <path
           d="M 0,0 H 52.724"
           style="fill:none;stroke:#274695;stroke-width:1.5;stroke-linecap:butt;stroke-linejoin:miter;stroke-miterlimit:4;stroke-dasharray:none;stroke-opacity:1"
           id="path66" />
      </g>
      <g
         id="g68"
         transform="translate(471.5444,497.8254)">
        <path
           d="M 0,0 26.362,-42.803"
           style="fill:none;stroke:#274695;stroke-width:1.5;stroke-linecap:butt;stroke-linejoin:miter;stroke-miterlimit:4;stroke-dasharray:none;stroke-opacity:1"
           id="path70" />
      </g>
      <g
         id="g72"
         transform="translate(77.9538,369.7844)">
        <path
           d="M 0,0 26.362,-42.803"
           style="fill:none;stroke:#274695;stroke-width:1.5;stroke-linecap:butt;stroke-linejoin:miter;stroke-miterlimit:4;stroke-dasharray:none;stroke-opacity:1"
           id="path74" />
      </g>
      <g
         id="g76">
        <g
           id="g78"
           clip-path="url(#clipPath82)">
          <g
             id="g84"
             transform="translate(314.9018,296.4848)">
            <path
               d="m 0,0 -31.413,11.573 c -1.047,1.653 -2.887,2.757 -4.984,2.757 -3.253,0 -5.901,-2.648 -5.901,-5.901 V -4.537 c -0.403,-0.461 -0.683,-1.027 -0.787,-1.658 l -3.567,-1.783 1.007,-4.027 1.635,0.408 -0.679,2.716 1.791,0.895 c 0.497,-1.245 1.709,-2.129 3.129,-2.129 1.42,0 2.632,0.884 3.128,2.129 l 1.79,-0.895 -0.678,-2.716 1.634,-0.408 1.008,4.027 -3.567,1.783 c -0.086,0.519 -0.286,0.997 -0.582,1.409 l 3.727,8.199 c 0.48,0.297 0.913,0.659 1.289,1.076 l 10.653,-11.414 -2.32,-1.946 1.771,-2.109 c -0.53,-0.577 -1.036,-1.179 -1.516,-1.806 l -2.384,1.377 -3.372,-5.84 2.38,-1.374 c -0.333,-0.802 -0.615,-1.623 -0.867,-2.45 h -18.837 c -2.79,0 -5.058,-2.268 -5.058,-5.057 0,-2.79 2.268,-5.058 5.058,-5.058 v -6.744 h 1.685 v 6.744 h 1.686 v -6.744 h 1.686 v 6.744 h 35.404 v -6.744 h 1.685 v 6.744 h 1.687 v -6.744 h 1.685 v 6.744 H 0.692 V 0 Z m -39.769,-8.43 c -0.93,0 -1.686,0.756 -1.686,1.686 0,0.93 0.756,1.686 1.686,1.686 0.93,0 1.686,-0.756 1.686,-1.686 0,-0.93 -0.756,-1.686 -1.686,-1.686 m 1.387,4.751 c -0.424,0.194 -0.891,0.307 -1.387,0.307 -0.292,0 -0.571,-0.049 -0.843,-0.119 v 7.799 c 1.072,-1.096 2.564,-1.779 4.215,-1.779 0.295,0 0.585,0.028 0.869,0.071 z m 1.985,7.894 c -2.324,0 -4.215,1.89 -4.215,4.214 0,2.324 1.891,4.215 4.215,4.215 2.324,0 4.214,-1.891 4.214,-4.215 0,-2.324 -1.89,-4.214 -4.214,-4.214 m 5.338,1.718 c 0.357,0.759 0.562,1.603 0.562,2.496 0,0.357 -0.037,0.706 -0.099,1.046 L -4.877,0 h -1.174 v -2.746 c -0.78,-0.1 -1.558,-0.237 -2.324,-0.407 l -0.939,2.579 -6.336,-2.307 0.937,-2.578 c -0.693,-0.362 -1.377,-0.757 -2.041,-1.182 l -1.766,2.104 -1.552,-1.302 z m 4.176,-22.565 1.686,2.919 2.233,-1.289 0.446,0.617 c 0.71,0.986 1.496,1.922 2.335,2.782 l 0.533,0.545 -1.66,1.978 2.583,2.167 1.656,-1.973 0.629,0.429 c 1.006,0.687 2.064,1.3 3.145,1.822 l 0.685,0.332 -0.879,2.413 3.168,1.154 0.88,-2.415 0.739,0.187 c 1.17,0.297 2.374,0.508 3.578,0.628 l 0.759,0.076 v 2.574 h 3.372 V -5.97 c -0.561,0.041 -1.125,0.069 -1.684,0.069 -9.703,0 -18.235,-6.076 -21.448,-15.172 H -25.9 c 0.272,0.831 0.574,1.657 0.935,2.457 l 0.313,0.694 z m -19.629,-12.871 c -1.86,0 -3.372,1.512 -3.372,3.372 0,1.859 1.512,3.372 3.372,3.372 1.859,0 3.371,-1.513 3.371,-3.372 0,-1.86 -1.512,-3.372 -3.371,-3.372 m 6.355,0 h -2.596 c 0.804,0.896 1.298,2.075 1.298,3.372 0,1.296 -0.494,2.475 -1.298,3.372 h 2.597 c -0.805,-0.897 -1.299,-2.076 -1.299,-3.372 0,-1.297 0.494,-2.476 1.298,-3.372 m 3.76,0 c -1.86,0 -3.372,1.512 -3.372,3.372 0,1.859 1.512,3.372 3.372,3.372 1.859,0 3.372,-1.513 3.372,-3.372 0,-1.86 -1.513,-3.372 -3.372,-3.372 m 6.356,0 h -2.597 c 0.804,0.896 1.298,2.075 1.298,3.372 0,1.296 -0.494,2.475 -1.298,3.372 h 2.597 c -0.805,-0.897 -1.299,-2.076 -1.299,-3.372 0,-1.297 0.494,-2.476 1.299,-3.372 m 3.759,0 c -1.859,0 -3.372,1.512 -3.372,3.372 0,1.859 1.513,3.372 3.372,3.372 1.859,0 3.372,-1.513 3.372,-3.372 0,-1.86 -1.513,-3.372 -3.372,-3.372 m 6.356,0 h -2.596 c 0.804,0.896 1.298,2.075 1.298,3.372 0,1.296 -0.494,2.475 -1.298,3.372 h 2.596 c -0.804,-0.897 -1.298,-2.076 -1.298,-3.372 0,-1.297 0.494,-2.476 1.298,-3.372 m 3.76,0 c -1.86,0 -3.372,1.512 -3.372,3.372 0,1.859 1.512,3.372 3.372,3.372 1.859,0 3.371,-1.513 3.371,-3.372 0,-1.86 -1.512,-3.372 -3.371,-3.372 m 6.355,0 h -2.596 c 0.804,0.896 1.298,2.075 1.298,3.372 0,1.296 -0.494,2.475 -1.298,3.372 h 2.597 c -0.805,-0.897 -1.299,-2.076 -1.299,-3.372 0,-1.297 0.494,-2.476 1.298,-3.372 m 3.76,0 c -1.86,0 -3.372,1.512 -3.372,3.372 0,1.859 1.512,3.372 3.372,3.372 1.859,0 3.372,-1.513 3.372,-3.372 0,-1.86 -1.513,-3.372 -3.372,-3.372 m 5.057,3.372 v -3.372 h -1.298 c 0.804,0.896 1.298,2.075 1.298,3.372 0,1.296 -0.494,2.475 -1.298,3.372 h 1.298 z m 0,13.376 c -0.582,0.066 -1.146,0.111 -1.685,0.111 v -1.686 c 0.532,0 1.097,-0.05 1.685,-0.124 v -6.619 h -13.819 c 2.311,3.705 6.158,6.158 10.54,6.645 l -0.186,1.676 c -5.244,-0.584 -9.801,-3.682 -12.301,-8.321 h -5.572 c 3.122,8.109 10.869,13.487 19.653,13.487 0.559,0 1.123,-0.031 1.685,-0.076 z"
               style="fill:#303336;fill-opacity:1;fill-rule:nonzero;stroke:none"
               id="path86" />
          </g>
          <g
             id="g88"
             transform="translate(278.5047,307.4428)">
            <path
               d="m 0,0 c -1.395,0 -2.529,-1.134 -2.529,-2.529 0,-1.394 1.134,-2.528 2.529,-2.528 1.394,0 2.528,1.134 2.528,2.528 C 2.528,-1.134 1.394,0 0,0 m 0,-3.372 c -0.465,0 -0.843,0.378 -0.843,0.843 0,0.466 0.378,0.843 0.843,0.843 0.465,0 0.843,-0.377 0.843,-0.843 0,-0.465 -0.378,-0.843 -0.843,-0.843"
               style="fill:#303336;fill-opacity:1;fill-rule:nonzero;stroke:none"
               id="path90" />
          </g>
          <g
             id="g92"
             transform="translate(289.7653,302.3267)">
            <path
               d="M 0,0 10.957,-4.215 10.352,-5.788 -0.605,-1.573 Z"
               style="fill:#303336;fill-opacity:1;fill-rule:nonzero;stroke:none"
               id="path94" />
          </g>
          <path
             d="m 267.546,271.196 h 1.686 v -1.686 h -1.686 z"
             style="fill:#303336;fill-opacity:1;fill-rule:nonzero;stroke:none"
             id="path96" />
          <path
             d="m 277.661,271.196 h 1.686 v -1.686 h -1.686 z"
             style="fill:#303336;fill-opacity:1;fill-rule:nonzero;stroke:none"
             id="path98" />
          <path
             d="m 287.777,271.196 h 1.686 v -1.686 h -1.686 z"
             style="fill:#303336;fill-opacity:1;fill-rule:nonzero;stroke:none"
             id="path100" />
          <path
             d="m 297.892,271.196 h 1.686 v -1.686 h -1.686 z"
             style="fill:#303336;fill-opacity:1;fill-rule:nonzero;stroke:none"
             id="path102" />
          <path
             d="m 308.007,271.196 h 1.686 v -1.686 h -1.686 z"
             style="fill:#303336;fill-opacity:1;fill-rule:nonzero;stroke:none"
             id="path104" />
        </g>
      </g>
      <g
         id="g106">
        <g
           id="g108"
           clip-path="url(#clipPath112)">
          <g
             id="g114"
             transform="translate(148.693,272.0397)">
            <path
               d="M 0,0 H -45.519 V -1.686 H 0 c 2.789,0 5.057,-2.268 5.057,-5.058 0,-2.789 -2.268,-5.057 -5.057,-5.057 h -45.519 v -1.686 H 0 c 3.718,0 6.744,3.025 6.744,6.743 C 6.744,-3.025 3.718,0 0,0"
               style="fill:#303336;fill-opacity:1;fill-rule:nonzero;stroke:none"
               id="path116" />
          </g>
          <g
             id="g118"
             transform="translate(152.0648,265.2961)">
            <path
               d="M 0,0 C 0,1.86 -1.513,3.372 -3.372,3.372 -5.231,3.372 -6.744,1.86 -6.744,0 c 0,-1.859 1.513,-3.372 3.372,-3.372 C -1.513,-3.372 0,-1.859 0,0 m -5.058,0 c 0,0.93 0.756,1.686 1.686,1.686 0.93,0 1.686,-0.756 1.686,-1.686 0,-0.93 -0.756,-1.686 -1.686,-1.686 -0.93,0 -1.686,0.756 -1.686,1.686"
               style="fill:#303336;fill-opacity:1;fill-rule:nonzero;stroke:none"
               id="path120" />
          </g>
          <g
             id="g122"
             transform="translate(143.6351,265.2961)">
            <path
               d="M 0,0 C 0,1.86 -1.512,3.372 -3.372,3.372 -5.231,3.372 -6.743,1.86 -6.743,0 c 0,-1.859 1.512,-3.372 3.371,-3.372 C -1.512,-3.372 0,-1.859 0,0 m -5.057,0 c 0,0.93 0.756,1.686 1.685,1.686 0.93,0 1.686,-0.756 1.686,-1.686 0,-0.93 -0.756,-1.686 -1.686,-1.686 -0.929,0 -1.685,0.756 -1.685,1.686"
               style="fill:#303336;fill-opacity:1;fill-rule:nonzero;stroke:none"
               id="path124" />
          </g>
          <g
             id="g126"
             transform="translate(135.206,265.2961)">
            <path
               d="M 0,0 C 0,1.86 -1.513,3.372 -3.372,3.372 -5.231,3.372 -6.744,1.86 -6.744,0 c 0,-1.859 1.513,-3.372 3.372,-3.372 C -1.513,-3.372 0,-1.859 0,0 m -5.058,0 c 0,0.93 0.756,1.686 1.686,1.686 0.93,0 1.686,-0.756 1.686,-1.686 0,-0.93 -0.756,-1.686 -1.686,-1.686 -0.93,0 -1.686,0.756 -1.686,1.686"
               style="fill:#303336;fill-opacity:1;fill-rule:nonzero;stroke:none"
               id="path128" />
          </g>
          <g
             id="g130"
             transform="translate(126.7763,265.2961)">
            <path
               d="M 0,0 C 0,1.86 -1.512,3.372 -3.372,3.372 -5.231,3.372 -6.743,1.86 -6.743,0 c 0,-1.859 1.512,-3.372 3.371,-3.372 C -1.512,-3.372 0,-1.859 0,0 m -5.057,0 c 0,0.93 0.756,1.686 1.685,1.686 0.93,0 1.686,-0.756 1.686,-1.686 0,-0.93 -0.756,-1.686 -1.686,-1.686 -0.929,0 -1.685,0.756 -1.685,1.686"
               style="fill:#303336;fill-opacity:1;fill-rule:nonzero;stroke:none"
               id="path132" />
          </g>
          <g
             id="g134"
             transform="translate(118.3472,265.2961)">
            <path
               d="M 0,0 C 0,1.86 -1.513,3.372 -3.372,3.372 -5.231,3.372 -6.744,1.86 -6.744,0 c 0,-1.859 1.513,-3.372 3.372,-3.372 C -1.513,-3.372 0,-1.859 0,0 m -5.058,0 c 0,0.93 0.756,1.686 1.686,1.686 0.93,0 1.686,-0.756 1.686,-1.686 0,-0.93 -0.756,-1.686 -1.686,-1.686 -0.93,0 -1.686,0.756 -1.686,1.686"
               style="fill:#303336;fill-opacity:1;fill-rule:nonzero;stroke:none"
               id="path136" />
          </g>
          <g
             id="g138"
             transform="translate(109.9176,265.2961)">
            <path
               d="M 0,0 C 0,1.86 -1.512,3.372 -3.372,3.372 -5.231,3.372 -6.744,1.86 -6.744,0 c 0,-1.859 1.513,-3.372 3.372,-3.372 C -1.512,-3.372 0,-1.859 0,0 m -5.057,0 c 0,0.93 0.756,1.686 1.685,1.686 0.93,0 1.686,-0.756 1.686,-1.686 0,-0.93 -0.756,-1.686 -1.686,-1.686 -0.929,0 -1.685,0.756 -1.685,1.686"
               style="fill:#303336;fill-opacity:1;fill-rule:nonzero;stroke:none"
               id="path140" />
          </g>
          <g
             id="g142"
             transform="translate(145.7131,305.4118)">
            <path
               d="M 0,0 C -0.122,0.118 -0.256,0.222 -0.392,0.324 V 5.403 H -2.078 V 1.104 c -0.272,0.055 -0.555,0.085 -0.843,0.085 -0.288,0 -0.57,-0.03 -0.843,-0.085 V 5.403 H -5.45 V 0.324 C -5.585,0.221 -5.719,0.118 -5.841,0 l -9.724,-5.042 v -10.827 l 2.851,-5.702 h 2.207 v -5.058 H 4.666 v 5.058 h 2.207 l 2.851,5.702 v 10.827 z m -2.921,-0.497 c 1.394,0 2.529,-1.135 2.529,-2.529 0,-1.394 -1.135,-2.529 -2.529,-2.529 -1.394,0 -2.529,1.135 -2.529,2.529 0,1.394 1.135,2.529 2.529,2.529 m -7.586,-10.958 h -1.686 v -1.687 h 1.686 v -1.685 h -1.686 v -1.686 h 1.686 v -3.372 h -1.165 l -2.207,4.414 v 9.403 l 6.792,3.524 c -0.018,-0.16 -0.048,-0.317 -0.048,-0.482 0,-1.308 0.611,-2.463 1.548,-3.237 l -4.92,-2.108 z M 2.98,-21.571 v -3.371 H -8.821 v 10.115 H 2.98 Z m 0,8.429 H -8.821 v 3.66 l 5.357,2.296 c 0.18,-0.024 0.358,-0.055 0.543,-0.055 0.186,0 0.364,0.031 0.543,0.055 L 2.98,-9.482 Z M 8.037,-15.471 5.83,-19.885 H 4.666 v 3.372 h 1.686 v 1.686 H 4.666 v 1.685 h 1.686 v 1.687 H 4.666 v 3.084 l -4.921,2.108 c 0.938,0.774 1.549,1.929 1.549,3.237 0,0.165 -0.031,0.322 -0.049,0.482 l 6.792,-3.524 z"
               style="fill:#303336;fill-opacity:1;fill-rule:nonzero;stroke:none"
               id="path144" />
          </g>
          <g
             id="g146"
             transform="translate(108.232,278.7831)">
            <path
               d="M 0,0 V -5.057 H 15.173 V 0 h 2.207 l 2.85,5.702 v 10.827 l -9.723,5.042 c -0.122,0.118 -0.257,0.221 -0.392,0.324 V 32.032 H 8.429 v -9.358 c -0.272,0.056 -0.555,0.085 -0.843,0.085 -0.288,0 -0.57,-0.029 -0.843,-0.085 v 9.358 H 5.057 V 21.895 C 4.922,21.792 4.788,21.689 4.666,21.571 L -5.058,16.529 V 5.702 L -2.207,0 Z M 13.487,0 V -3.372 H 1.686 V 6.744 h 11.801 z m -1.686,18.545 c 0,0.165 -0.03,0.322 -0.049,0.482 l 6.792,-3.523 V 6.1 L 16.337,1.686 h -1.164 v 3.372 h 1.686 V 6.744 H 15.173 V 8.43 h 1.686 v 1.685 H 15.173 V 13.2 l -4.921,2.108 c 0.938,0.774 1.549,1.93 1.549,3.237 m 1.686,-6.456 V 8.43 H 1.686 v 3.659 l 5.358,2.296 c 0.179,-0.024 0.357,-0.055 0.542,-0.055 0.186,0 0.364,0.031 0.543,0.055 z m -5.901,8.985 c 1.394,0 2.529,-1.135 2.529,-2.529 0,-1.394 -1.135,-2.529 -2.529,-2.529 -1.394,0 -2.529,1.135 -2.529,2.529 0,1.394 1.135,2.529 2.529,2.529 m -10.958,-5.57 6.793,3.523 C 3.402,18.867 3.372,18.71 3.372,18.545 c 0,-1.307 0.611,-2.463 1.548,-3.237 L 0,13.2 V 10.115 H -1.686 V 8.43 H 0 V 6.744 H -1.686 V 5.058 H 0 V 1.686 H -1.165 L -3.372,6.1 Z"
               style="fill:#303336;fill-opacity:1;fill-rule:nonzero;stroke:none"
               id="path148" />
          </g>
          <path
             d="m 145.321,283.841 h 1.686 v -1.686 h -1.686 z"
             style="fill:#303336;fill-opacity:1;fill-rule:nonzero;stroke:none"
             id="path150" />
          <path
             d="m 118.347,278.783 h 1.686 v -1.686 h -1.686 z"
             style="fill:#303336;fill-opacity:1;fill-rule:nonzero;stroke:none"
             id="path152" />
        </g>
      </g>
      <path
         d="m 336.898,383.15 h 58.677 v 54.709 h -58.677 z"
         style="fill:#ffffff;fill-opacity:1;fill-rule:nonzero;stroke:none"
         id="path154" />
      <path
         d="m 343.531,395.944 h 18.141 v -1.776 h -18.141 z"
         style="fill:#303336;fill-opacity:1;fill-rule:nonzero;stroke:none"
         id="path156" />
      <path
         d="m 365.319,395.962 h 1.776 v -5.442 h -1.776 z"
         style="fill:#303336;fill-opacity:1;fill-rule:nonzero;stroke:none"
         id="path158" />
      <path
         d="m 370.763,395.962 h 1.776 v -5.442 h -1.776 z"
         style="fill:#303336;fill-opacity:1;fill-rule:nonzero;stroke:none"
         id="path160" />
      <path
         d="m 376.205,395.962 h 1.776 v -5.442 h -1.776 z"
         style="fill:#303336;fill-opacity:1;fill-rule:nonzero;stroke:none"
         id="path162" />
      <path
         d="m 381.647,395.962 h 1.776 v -5.442 h -1.776 z"
         style="fill:#303336;fill-opacity:1;fill-rule:nonzero;stroke:none"
         id="path164" />
      <path
         d="m 387.09,395.962 h 1.776 v -5.442 h -1.776 z"
         style="fill:#303336;fill-opacity:1;fill-rule:nonzero;stroke:none"
         id="path166" />
      <g
         id="g168"
         transform="translate(370.8162,437.6691)">
        <path
           d="m 0,0 -1.834,-29.349 -5.615,-2.807 -1.777,23.992 h -8.896 l -1.842,-21.179 -12.745,-6.373 V -52.61 h -0.926 v -1.777 h 58.054 v 1.777 h -0.926 v 26.854 L 10.716,-32.144 8.931,0 Z M 1.669,-1.776 H 7.25 L 7.354,-3.629 H 1.552 Z M 1.442,-5.405 h 6.01 L 7.556,-7.257 H 1.326 Z M 1.215,-9.032 H 7.654 L 8.986,-33.009 5.35,-34.827 v 9.071 L 0.003,-28.43 Z M -16.493,-9.94 h 5.617 l 0.138,-1.852 h -5.917 z m -0.315,-3.628 h 6.201 l 0.137,-1.853 h -6.5 z m -0.316,-3.628 h 6.786 l 1.171,-15.82 -3.624,-1.811 v 9.071 l -5.308,-2.655 z M 21.716,-28.63 V -48.983 H -9.163 v 4.536 h -18.103 v -4.536 h -3.667 v 12.169 l 16.366,8.184 v -9.071 l 18.142,9.071 v -9.071 z m -47.207,-17.593 h 14.551 v -6.387 h -14.551 z m 16.328,-4.536 H 21.716 V -52.61 H -9.163 Z m -21.77,0 h 3.667 v -1.851 h -3.667 z"
           style="fill:#303336;fill-opacity:1;fill-rule:nonzero;stroke:none"
           id="path170" />
      </g>
      <g
         id="g172">
        <g
           id="g174"
           clip-path="url(#clipPath178)">
          <g
             id="g180"
             transform="translate(388.4341,417.9449)">
            <path
               d="M 0,0 C -0.519,-0.799 -0.293,-1.862 0.506,-2.381 1.305,-2.9 2.369,-2.674 2.888,-1.875 3.407,-1.076 3.181,-0.013 2.382,0.506 1.595,1.017 0.519,0.799 0,0 m 1.547,-1.005 c -0.033,-0.051 -0.106,-0.077 -0.17,-0.036 -0.052,0.034 -0.078,0.106 -0.036,0.17 0.033,0.052 0.105,0.079 0.17,0.037 0.056,-0.055 0.07,-0.119 0.036,-0.171"
               style="fill:#303336;fill-opacity:1;fill-rule:nonzero;stroke:none"
               id="path182" />
          </g>
          <g
             id="g184"
             transform="translate(400.3686,419.3039)">
            <path
               d="m 0,0 c 0.206,-0.134 0.471,-0.178 0.726,-0.123 0.485,0.125 0.79,0.623 0.66,1.129 -0.756,2.928 -2.56,5.456 -5.112,7.114 -2.514,1.632 -5.528,2.27 -8.481,1.786 -0.506,-0.074 -0.837,-0.555 -0.763,-1.062 0.074,-0.506 0.556,-0.837 1.062,-0.763 2.503,0.41 5.063,-0.135 7.19,-1.517 C -2.565,5.166 -1.021,3.027 -0.395,0.549 -0.332,0.307 -0.193,0.126 0,0"
               style="fill:#303336;fill-opacity:1;fill-rule:nonzero;stroke:none"
               id="path186" />
          </g>
        </g>
      </g>
      <g
         id="g188">
        <g
           id="g190"
           clip-path="url(#clipPath194)">
          <g
             id="g196"
             transform="translate(395.2289,417.7113)">
            <path
               d="M 0,0 C 0.206,-0.134 0.471,-0.178 0.726,-0.123 1.211,0.002 1.516,0.5 1.386,1.006 0.948,2.702 -0.097,4.169 -1.554,5.115 -3.011,6.061 -4.755,6.423 -6.452,6.151 -6.959,6.077 -7.29,5.596 -7.216,5.089 -7.141,4.583 -6.66,4.252 -6.153,4.326 -4.898,4.537 -3.616,4.254 -2.558,3.568 -1.476,2.864 -0.704,1.795 -0.395,0.549 -0.332,0.307 -0.181,0.117 0,0"
               style="fill:#303336;fill-opacity:1;fill-rule:nonzero;stroke:none"
               id="path198" />
          </g>
          <g
             id="g200"
             transform="translate(406.0339,420.097)">
            <path
               d="m 0,0 c 0.206,-0.134 0.471,-0.178 0.726,-0.124 0.485,0.126 0.79,0.624 0.66,1.13 -1.145,4.501 -3.934,8.364 -7.827,10.893 -3.854,2.503 -8.483,3.475 -13.007,2.747 -0.506,-0.075 -0.837,-0.556 -0.763,-1.063 0.074,-0.506 0.556,-0.837 1.062,-0.763 4.081,0.667 8.236,-0.216 11.704,-2.468 3.506,-2.278 6.012,-5.756 7.05,-9.803 C -0.324,0.32 -0.181,0.117 0,0"
               style="fill:#303336;fill-opacity:1;fill-rule:nonzero;stroke:none"
               id="path202" />
          </g>
        </g>
      </g>
      <g
         id="g204">
        <g
           id="g206"
           clip-path="url(#clipPath210)">
          <g
             id="g212"
             transform="translate(208.7993,516.8228)">
            <path
               d="m 0,0 c 0,0 -12,0 -12,-12 v -2.819 c 0,0 0,-12 12,-12 h 108.079 c 0,0 12,0 12,12 V -12 c 0,0 0,12 -12,12 z"
               style="fill:#ffffff;fill-opacity:1;fill-rule:nonzero;stroke:none"
               id="path214" />
          </g>
          <g
             id="g216"
             transform="translate(208.7993,516.8228)">
            <path
               d="m 0,0 c 0,0 -12,0 -12,-12 v -2.819 c 0,0 0,-12 12,-12 h 108.079 c 0,0 12,0 12,12 V -12 c 0,0 0,12 -12,12 z"
               style="fill:none;stroke:#274794;stroke-width:1;stroke-linecap:butt;stroke-linejoin:miter;stroke-miterlimit:4;stroke-dasharray:none;stroke-opacity:1"
               id="path218" />
          </g>
        </g>
      </g>
      <text
         transform="matrix(1,0,0,-1,203.5197,499.7393)"
         style="font-variant:normal;font-weight:bold;font-stretch:normal;font-size:9px;font-family:Lato;-inkscape-font-specification:Lato-Bold;writing-mode:lr-tb;fill:#2c2e31;fill-opacity:1;fill-rule:nonzero;stroke:none"
         id="text222">
        <tspan
           x="0 2.826 9.6300001 14.985 20.132999 24.785999 27.612 34.118999 39.266998 46.070999 51.425999 58.23 63.377998 65.114998 70.973999 77.526001 83.910599 89.7966 96.600601 102.8826"
           y="0"
           id="tspan220">INTELIGENTNE BUDYNKI</tspan>
      </text>
      <g
         id="g224">
        <g
           id="g226"
           clip-path="url(#clipPath230)">
          <g
             id="g232"
             transform="translate(62.3819,394.6968)">
            <path
               d="m 0,0 c 0,0 -11,0 -11,-11 v -3.693 c 0,0 0,-11 11,-11 h 125.252 c 0,0 11,0 11,11 V -11 c 0,0 0,11 -11,11 z"
               style="fill:#ffffff;fill-opacity:1;fill-rule:nonzero;stroke:none"
               id="path234" />
          </g>
          <g
             id="g236"
             transform="translate(62.3819,394.6968)">
            <path
               d="m 0,0 c 0,0 -11,0 -11,-11 v -3.693 c 0,0 0,-11 11,-11 h 125.252 c 0,0 11,0 11,11 V -11 c 0,0 0,11 -11,11 z"
               style="fill:none;stroke:#274794;stroke-width:1;stroke-linecap:butt;stroke-linejoin:miter;stroke-miterlimit:4;stroke-dasharray:none;stroke-opacity:1"
               id="path238" />
          </g>
        </g>
      </g>
      <text
         transform="matrix(1,0,0,-1,59.3858,378.0307)"
         style="font-variant:normal;font-weight:bold;font-stretch:normal;font-size:9px;font-family:Lato;-inkscape-font-specification:Lato-Bold;writing-mode:lr-tb;fill:#2c2e31;fill-opacity:1;fill-rule:nonzero;stroke:none"
         id="text242">
        <tspan
           x="0 2.826 9.6300001 14.985 20.132999 24.785999 27.612 34.118999 39.266998 46.070999 51.425999 58.23 63.377998 65.114998 73.485001 79.658096 86.1651 92.555099 98.108101 103.9941 110.7981"
           y="0"
           id="tspan240">INTELIGENTNE MAGAZYNY</tspan>
      </text>
      <g
         id="g244">
        <g
           id="g246"
           clip-path="url(#clipPath250)">
          <g
             id="g252"
             transform="translate(291.4213,205.0117)">
            <path
               d="m 0,0 c 0,0 -11,0 -11,-11 v -3.693 c 0,0 0,-11 11,-11 h 122.134 c 0,0 11,0 11,11 V -11 c 0,0 0,11 -11,11 z"
               style="fill:#ffffff;fill-opacity:1;fill-rule:nonzero;stroke:none"
               id="path254" />
          </g>
          <g
             id="g256"
             transform="translate(291.4213,205.0117)">
            <path
               d="m 0,0 c 0,0 -11,0 -11,-11 v -3.693 c 0,0 0,-11 11,-11 h 122.134 c 0,0 11,0 11,11 V -11 c 0,0 0,11 -11,11 z"
               style="fill:none;stroke:#274794;stroke-width:1;stroke-linecap:butt;stroke-linejoin:miter;stroke-miterlimit:4;stroke-dasharray:none;stroke-opacity:1"
               id="path258" />
          </g>
        </g>
      </g>
      <text
         transform="matrix(1,0,0,-1,286.8661,188.3456)"
         style="font-variant:normal;font-weight:bold;font-stretch:normal;font-size:9px;font-family:Lato;-inkscape-font-specification:Lato-Bold;writing-mode:lr-tb;fill:#2c2e31;fill-opacity:1;fill-rule:nonzero;stroke:none"
         id="text262">
        <tspan
           x="0 2.826 9.6300001 14.985 20.132999 24.785999 27.612 34.118999 39.266998 46.070999 51.425999 58.23 64.620003 66.357002 71.982002 77.669098 84.8601 91.583099 98.135101 104.2911 110.3211 114.0246"
           y="0"
           id="tspan260">INTELIGENTNA PRODUKCJA</tspan>
      </text>
      <g
         id="g264"
         transform="translate(627.5126,243.5779)">
        <path
           d="m 0,0 h -52.381 l -26.191,-42.639 26.191,-42.64 H 0 l 26.191,42.64 z"
           style="fill:#ffffff;fill-opacity:1;fill-rule:nonzero;stroke:none"
           id="path266" />
      </g>
      <g
         id="g268"
         transform="translate(627.5126,243.5779)">
        <path
           d="m 0,0 h -52.381 l -26.191,-42.639 26.191,-42.64 H 0 l 26.191,42.64 z"
           style="fill:none;stroke:#274596;stroke-width:1.5;stroke-linecap:butt;stroke-linejoin:miter;stroke-miterlimit:4;stroke-dasharray:none;stroke-opacity:1"
           id="path270" />
      </g>
      <g
         id="g272"
         transform="translate(628.9697,498.1006)">
        <path
           d="m 0,0 h -52.381 l -26.191,-42.639 26.191,-42.64 H 0 l 26.191,42.64 z"
           style="fill:#ffffff;fill-opacity:1;fill-rule:nonzero;stroke:none"
           id="path274" />
      </g>
      <g
         id="g276"
         transform="translate(628.9697,498.1006)">
        <path
           d="m 0,0 h -52.381 l -26.191,-42.639 26.191,-42.64 H 0 l 26.191,42.64 z"
           style="fill:none;stroke:#274596;stroke-width:1.5;stroke-linecap:butt;stroke-linejoin:miter;stroke-miterlimit:4;stroke-dasharray:none;stroke-opacity:1"
           id="path278" />
      </g>
      <g
         id="g280"
         transform="translate(706.9223,372.6675)">
        <path
           d="m 0,0 h -52.381 l -26.191,-42.639 26.191,-42.64 H 0 l 26.191,42.64 z"
           style="fill:#ffffff;fill-opacity:1;fill-rule:nonzero;stroke:none"
           id="path282" />
      </g>
      <g
         id="g284"
         transform="translate(706.9223,372.6675)">
        <path
           d="m 0,0 h -52.381 l -26.191,-42.639 26.191,-42.64 H 0 l 26.191,42.64 z"
           style="fill:none;stroke:#274596;stroke-width:1.5;stroke-linecap:butt;stroke-linejoin:miter;stroke-miterlimit:4;stroke-dasharray:none;stroke-opacity:1"
           id="path286" />
      </g>
      <g
         id="g288"
         transform="translate(628.3096,414.0471)">
        <path
           d="M 0,0 26.362,-42.803"
           style="fill:none;stroke:#274695;stroke-width:1.5;stroke-linecap:butt;stroke-linejoin:miter;stroke-miterlimit:4;stroke-dasharray:none;stroke-opacity:1"
           id="path290" />
      </g>
      <g
         id="g292"
         transform="translate(627.4236,243.7876)">
        <path
           d="M 0,0 26.646,43.654"
           style="fill:none;stroke:#274695;stroke-width:1.5;stroke-linecap:butt;stroke-linejoin:miter;stroke-miterlimit:4;stroke-dasharray:none;stroke-opacity:1"
           id="path294" />
      </g>
      <g
         id="g296"
         transform="translate(628.9827,497.4883)">
        <path
           d="M 0,0 26.646,43.654"
           style="fill:none;stroke:#274695;stroke-width:1.5;stroke-linecap:butt;stroke-linejoin:miter;stroke-miterlimit:4;stroke-dasharray:none;stroke-opacity:1"
           id="path298" />
      </g>
      <g
         id="g300"
         transform="translate(652.6772,201.7319)">
        <path
           d="M 0,0 H 52.724"
           style="fill:none;stroke:#274695;stroke-width:1.5;stroke-linecap:butt;stroke-linejoin:miter;stroke-miterlimit:4;stroke-dasharray:none;stroke-opacity:1"
           id="path302" />
      </g>
      <g
         id="g304"
         transform="translate(497.0834,455.4536)">
        <path
           d="M 0,0 H 52.724"
           style="fill:none;stroke:#274695;stroke-width:1.5;stroke-linecap:butt;stroke-linejoin:miter;stroke-miterlimit:4;stroke-dasharray:none;stroke-opacity:1"
           id="path306" />
      </g>
      <g
         id="g308"
         transform="translate(707.389,372.707)">
        <path
           d="M 0,0 26.646,43.654"
           style="fill:none;stroke:#274695;stroke-width:1.5;stroke-linecap:butt;stroke-linejoin:miter;stroke-miterlimit:4;stroke-dasharray:none;stroke-opacity:1"
           id="path310" />
      </g>
      <g
         id="g312">
        <g
           id="g314"
           clip-path="url(#clipPath318)">
          <g
             id="g320"
             transform="translate(700.7301,346.1035)">
            <path
               d="m 0,0 h -6.013 c -0.125,0.169 -0.242,0.343 -0.373,0.507 -0.255,0.321 -0.707,0.407 -1.062,0.201 l -2.317,-1.34 c -0.255,0.277 -0.52,0.541 -0.797,0.797 l 1.341,2.317 c 0.205,0.355 0.119,0.807 -0.202,1.062 -1.366,1.083 -2.883,1.96 -4.504,2.603 -0.381,0.153 -0.816,0.003 -1.022,-0.353 L -16.29,3.48 c -0.361,0.111 -0.724,0.207 -1.088,0.288 v 2.67 c 0,0.408 -0.298,0.756 -0.701,0.818 -1.73,0.254 -3.487,0.254 -5.217,0 -0.403,-0.062 -0.701,-0.41 -0.701,-0.818 V 3.768 C -24.36,3.687 -24.723,3.591 -25.084,3.48 l -1.341,2.314 c -0.206,0.355 -0.642,0.506 -1.023,0.353 -1.621,-0.643 -3.138,-1.52 -4.504,-2.603 -0.321,-0.255 -0.406,-0.707 -0.201,-1.062 l 1.34,-2.317 c -0.276,-0.256 -0.541,-0.52 -0.797,-0.797 l -2.317,1.34 c -0.355,0.206 -0.806,0.12 -1.062,-0.201 C -35.119,0.343 -35.237,0.169 -35.362,0 h -6.013 c -2.283,-0.002 -4.134,-1.853 -4.137,-4.137 v -27.308 c 0.003,-2.284 1.854,-4.135 4.137,-4.137 h 13.24 v -1.655 h -5.792 c -0.457,0 -0.828,-0.371 -0.828,-0.828 v -3.31 c 0,-0.457 0.371,-0.827 0.828,-0.827 h 26.48 c 0.457,0 0.827,0.37 0.827,0.827 v 3.31 c 0,0.457 -0.37,0.828 -0.827,0.828 h -5.793 v 1.655 H 0 c 2.284,0.002 4.135,1.853 4.138,4.137 V -4.137 C 4.135,-1.853 2.284,-0.002 0,0 m -34.123,-1.09 2.272,-1.314 c 0.348,-0.202 0.791,-0.124 1.049,0.185 0.478,0.571 1.005,1.099 1.577,1.577 0.308,0.258 0.386,0.7 0.185,1.048 l -1.315,2.272 c 0.896,0.648 1.855,1.202 2.864,1.654 l 1.313,-2.264 c 0.2,-0.346 0.619,-0.499 0.996,-0.364 0.698,0.252 1.418,0.442 2.15,0.566 0.398,0.068 0.69,0.413 0.69,0.817 V 5.71 c 1.1,0.11 2.209,0.11 3.31,0 V 3.087 c 0,-0.404 0.291,-0.749 0.69,-0.817 0.732,-0.124 1.451,-0.314 2.15,-0.566 0.376,-0.136 0.795,0.018 0.996,0.364 l 1.313,2.264 c 1.009,-0.452 1.968,-1.006 2.864,-1.654 l -1.315,-2.272 c -0.201,-0.348 -0.123,-0.79 0.185,-1.048 0.571,-0.478 1.099,-1.006 1.577,-1.577 0.258,-0.309 0.7,-0.386 1.048,-0.185 l 2.273,1.314 c 0.648,-0.895 1.202,-1.855 1.654,-2.863 l -2.265,-1.314 c -0.346,-0.2 -0.499,-0.619 -0.364,-0.995 0.252,-0.699 0.442,-1.418 0.567,-2.15 0.067,-0.398 0.412,-0.69 0.816,-0.691 h 2.623 c 0.028,-0.267 0.028,-0.551 0.041,-0.827 h -4.965 c -0.428,6.06 -5.468,10.758 -11.543,10.758 -6.075,0 -11.116,-4.698 -11.543,-10.758 h -4.966 c 0.014,0.276 0.014,0.56 0.041,0.827 h 2.624 c 0.404,10e-4 0.749,0.293 0.816,0.691 0.125,0.732 0.314,1.451 0.566,2.15 0.136,0.376 -0.017,0.795 -0.363,0.995 l -2.265,1.314 c 0.452,1.008 1.006,1.968 1.654,2.863 m 23.324,-8.84 h -19.776 c 0.426,5.145 4.726,9.103 9.888,9.103 5.162,0 9.461,-3.958 9.888,-9.103 m 2.524,-30.617 H -33.1 v 1.655 h 24.825 z m -18.205,4.965 h 11.585 v -1.655 H -26.48 Z m 28.962,4.137 C 2.481,-32.815 1.371,-33.926 0,-33.927 h -41.375 c -1.37,10e-4 -2.481,1.112 -2.482,2.482 v 2.483 H 2.482 Z m 0,4.138 h -46.339 v 23.17 c 10e-4,1.37 1.112,2.481 2.482,2.482 h 4.917 c -0.433,-0.752 -0.813,-1.535 -1.134,-2.341 -0.152,-0.382 -0.002,-0.817 0.354,-1.023 l 2.313,-1.342 c -0.111,-0.361 -0.207,-0.723 -0.288,-1.086 h -2.67 c -0.408,0 -0.755,-0.299 -0.818,-0.702 -0.085,-0.59 -0.139,-1.185 -0.161,-1.781 h -0.858 c -0.457,0 -0.827,-0.37 -0.827,-0.827 0,-0.457 0.37,-0.828 0.827,-0.828 h 38.065 c 0.457,0 0.828,0.371 0.828,0.828 0,0.457 -0.371,0.827 -0.828,0.827 h -0.857 c -0.023,0.596 -0.077,1.191 -0.162,1.781 -0.062,0.404 -0.409,0.702 -0.818,0.702 h -2.67 c -0.081,0.362 -0.177,0.725 -0.288,1.086 l 2.314,1.342 c 0.355,0.206 0.506,0.641 0.353,1.023 -0.321,0.806 -0.701,1.589 -1.134,2.341 H 0 c 1.37,-10e-4 2.481,-1.112 2.482,-2.482 z"
               style="fill:#303336;fill-opacity:1;fill-rule:nonzero;stroke:none"
               id="path322" />
          </g>
        </g>
      </g>
      <g
         id="g324">
        <g
           id="g326"
           clip-path="url(#clipPath330)">
          <g
             id="g332"
             transform="translate(671.6824,327.1995)">
            <path
               d="m 0,0 v 0 c -0.436,2.606 -2.581,4.586 -5.213,4.813 -2.632,0.227 -5.084,-1.356 -5.959,-3.848 -0.876,-2.493 0.047,-5.262 2.242,-6.731 l 0.008,-0.008 c 0.007,-0.004 0.015,-0.005 0.022,-0.01 1.919,-1.288 4.421,-1.306 6.359,-0.047 C -0.603,-4.571 0.397,-2.277 0,0 Z M -4.879,3.098 C -3.501,2.811 -2.362,1.843 -1.857,0.529 L -4.879,0.022 Z M -9.667,0.246 c 0.44,1.454 1.644,2.55 3.133,2.852 v -3.802 l -2.11,-3.161 c -1.07,1.078 -1.464,2.657 -1.023,4.111 m 3.96,-5.339 c -0.535,0.001 -1.064,0.106 -1.559,0.31 l 2.049,3.07 3.632,0.609 c -0.078,-2.222 -1.899,-3.984 -4.122,-3.989"
               style="fill:#303336;fill-opacity:1;fill-rule:nonzero;stroke:none"
               id="path334" />
          </g>
          <g
             id="g336"
             transform="translate(699.0751,332.0363)">
            <path
               d="m 0,0 h -23.997 c -0.457,0 -0.828,-0.371 -0.828,-0.828 v -9.929 c 0,-0.458 0.371,-0.828 0.828,-0.828 H 0 c 0.457,0 0.828,0.371 0.828,0.828 v 9.929 C 0.828,-0.371 0.457,0 0,0 m -19.032,-9.93 h -4.137 v 4.965 h 4.137 z m 0,6.62 h -4.137 v 1.655 h 4.137 z m 18.205,-6.62 h -16.55 v 4.965 h 16.55 z m 0,6.62 h -16.55 v 1.655 h 16.55 z"
               style="fill:#303336;fill-opacity:1;fill-rule:nonzero;stroke:none"
               id="path338" />
          </g>
          <g
             id="g340"
             transform="translate(684.1804,323.761)">
            <path
               d="m 0,0 h 1.655 c 0.457,0 0.827,0.371 0.827,0.828 0,0.457 -0.37,0.827 -0.827,0.827 L 0,1.655 c -0.457,0 -0.828,-0.37 -0.828,-0.827 C -0.828,0.371 -0.457,0 0,0"
               style="fill:#303336;fill-opacity:1;fill-rule:nonzero;stroke:none"
               id="path342" />
          </g>
          <g
             id="g344"
             transform="translate(689.1455,323.761)">
            <path
               d="m 0,0 h 1.655 c 0.457,0 0.827,0.371 0.827,0.828 0,0.457 -0.37,0.827 -0.827,0.827 L 0,1.655 c -0.457,0 -0.828,-0.37 -0.828,-0.827 C -0.828,0.371 -0.457,0 0,0"
               style="fill:#303336;fill-opacity:1;fill-rule:nonzero;stroke:none"
               id="path346" />
          </g>
          <g
             id="g348"
             transform="translate(694.1105,323.761)">
            <path
               d="m 0,0 h 1.655 c 0.457,0 0.827,0.371 0.827,0.828 0,0.457 -0.37,0.827 -0.827,0.827 L 0,1.655 c -0.457,0 -0.828,-0.37 -0.828,-0.827 C -0.828,0.371 -0.457,0 0,0"
               style="fill:#303336;fill-opacity:1;fill-rule:nonzero;stroke:none"
               id="path350" />
          </g>
        </g>
      </g>
      <g
         id="g352">
        <g
           id="g354"
           clip-path="url(#clipPath358)">
          <g
             id="g360"
             transform="translate(622.0687,216.9134)">
            <path
               d="m 0,0 h -20.386 c -1.434,4.44 -5.567,7.448 -10.231,7.448 -4.665,0 -8.798,-3.008 -10.231,-7.448 h -0.527 c -2.283,-0.002 -4.134,-1.853 -4.137,-4.137 v -27.308 c 0.003,-2.284 1.854,-4.135 4.137,-4.137 h 13.24 v -1.655 h -5.792 c -0.22,0 -0.43,-0.087 -0.585,-0.243 -0.156,-0.155 -0.243,-0.365 -0.243,-0.585 v -3.31 c 0,-0.219 0.087,-0.43 0.243,-0.585 0.155,-0.155 0.365,-0.243 0.585,-0.243 h 26.48 c 0.219,0 0.43,0.088 0.585,0.243 0.155,0.155 0.242,0.366 0.242,0.585 v 3.31 c 0,0.22 -0.087,0.43 -0.242,0.585 -0.155,0.156 -0.365,0.243 -0.585,0.243 h -5.793 v 1.655 H 0 c 2.284,0.002 4.135,1.853 4.138,4.137 V -4.137 C 4.135,-1.853 2.284,-0.002 0,0 m -38.622,1.031 c 1.591,2.938 4.664,4.766 8.005,4.762 3.34,0.004 6.414,-1.824 8.005,-4.762 1.591,-2.937 1.443,-6.51 -0.386,-9.306 h -1.827 c -0.002,2.162 -1.208,4.142 -3.127,5.138 1.33,1.119 1.817,2.95 1.222,4.582 -0.597,1.633 -2.149,2.719 -3.887,2.719 -1.738,0 -3.291,-1.086 -3.887,-2.718 -0.596,-1.633 -0.108,-3.464 1.221,-4.583 -1.919,-0.996 -3.124,-2.976 -3.127,-5.138 h -1.827 c -1.828,2.796 -1.977,6.369 -0.385,9.306 m 8.005,-5.168 c 2.285,0 4.137,-1.853 4.137,-4.138 h -8.275 c 0,2.285 1.852,4.138 4.138,4.138 M -33.1,0 c 0,1.371 1.112,2.482 2.483,2.482 1.371,0 2.482,-1.111 2.482,-2.482 0,-1.371 -1.111,-2.483 -2.482,-2.483 -1.371,0.002 -2.482,1.113 -2.483,2.483 m 8.711,-9.93 c -3.493,-3.31 -8.964,-3.31 -12.456,0 z M -8.275,-40.547 H -33.1 v 1.655 h 24.825 z m -18.205,4.965 h 11.585 v -1.655 H -26.48 Z m 28.962,4.137 C 2.481,-32.815 1.371,-33.926 0,-33.927 h -41.375 c -1.37,10e-4 -2.481,1.112 -2.482,2.482 v 2.482 H 2.482 Z m 0,4.138 h -46.339 v 23.17 c 10e-4,1.37 1.112,2.481 2.482,2.482 h 0.141 c -0.459,-2.775 0.214,-5.619 1.87,-7.893 0.032,-0.056 0.07,-0.107 0.114,-0.154 2.02,-2.744 5.225,-4.365 8.633,-4.365 3.408,0 6.613,1.621 8.633,4.365 0.044,0.047 0.082,0.098 0.114,0.154 1.655,2.274 2.329,5.118 1.869,7.893 H 0 c 1.371,-10e-4 2.482,-1.112 2.483,-2.482 v -23.17 z"
               style="fill:#303336;fill-opacity:1;fill-rule:nonzero;stroke:none"
               id="path362" />
          </g>
          <g
             id="g364"
             transform="translate(598.8989,201.1912)">
            <path
               d="m 0,0 h -14.895 c -0.457,0 -0.828,-0.371 -0.828,-0.828 0,-0.457 0.371,-0.827 0.828,-0.827 H 0 c 0.457,0 0.827,0.37 0.827,0.827 C 0.827,-0.371 0.457,0 0,0"
               style="fill:#303336;fill-opacity:1;fill-rule:nonzero;stroke:none"
               id="path366" />
          </g>
          <g
             id="g368"
             transform="translate(598.8989,197.8811)">
            <path
               d="m 0,0 h -14.895 c -0.457,0 -0.828,-0.371 -0.828,-0.828 0,-0.457 0.371,-0.827 0.828,-0.827 H 0 c 0.457,0 0.827,0.37 0.827,0.827 C 0.827,-0.37 0.457,0 0,0"
               style="fill:#303336;fill-opacity:1;fill-rule:nonzero;stroke:none"
               id="path370" />
          </g>
          <g
             id="g372"
             transform="translate(598.8989,194.5708)">
            <path
               d="m 0,0 h -14.895 c -0.457,0 -0.828,-0.37 -0.828,-0.827 0,-0.457 0.371,-0.828 0.828,-0.828 H 0 c 0.457,0 0.827,0.371 0.827,0.828 C 0.827,-0.37 0.457,0 0,0"
               style="fill:#303336;fill-opacity:1;fill-rule:nonzero;stroke:none"
               id="path374" />
          </g>
          <g
             id="g376"
             transform="translate(613.7938,213.6036)">
            <path
               d="M 0,0 H -8.275 C -9.188,-0.001 -9.929,-0.741 -9.93,-1.655 v -6.62 c 10e-4,-0.914 0.741,-1.654 1.655,-1.655 H 0 c 0.914,10e-4 1.654,0.741 1.655,1.655 v 6.62 C 1.654,-0.741 0.914,-0.001 0,0 m -1.461,-1.655 -2.676,-2.233 -2.677,2.233 z m -6.814,-0.936 1.905,-1.59 -1.905,-2.481 z m 0.848,-5.684 2.329,3.033 0.431,-0.359 c 0.307,-0.255 0.752,-0.255 1.06,0 l 0.43,0.359 2.329,-3.033 z M -1.905,-4.18 0,-2.591 0.001,-6.663 Z"
               style="fill:#303336;fill-opacity:1;fill-rule:nonzero;stroke:none"
               id="path378" />
          </g>
          <g
             id="g380"
             transform="translate(609.6563,202.0185)">
            <path
               d="m 0,0 c -3.199,0 -5.792,-2.593 -5.792,-5.792 0.003,-3.198 2.595,-5.789 5.792,-5.793 3.199,0 5.792,2.594 5.792,5.793 C 5.792,-2.593 3.199,0 0,0 m -4.054,-6.62 h 1.595 c 0.038,-0.936 0.187,-1.864 0.445,-2.764 -1.049,0.582 -1.793,1.59 -2.04,2.764 m 1.595,1.655 h -1.595 c 0.247,1.174 0.991,2.182 2.04,2.764 -0.258,-0.9 -0.407,-1.828 -0.445,-2.764 M 0,-9.855 c -0.536,0.994 -0.812,2.106 -0.803,3.235 H 0.804 C 0.812,-7.749 0.536,-8.861 0,-9.855 m 0.804,4.89 H -0.803 C -0.812,-3.836 -0.536,-2.724 0,-1.73 0.536,-2.724 0.812,-3.836 0.804,-4.965 m 1.21,-4.419 c 0.258,0.9 0.408,1.828 0.445,2.764 H 4.054 C 3.807,-7.794 3.063,-8.802 2.014,-9.384 m 0.445,4.419 c -0.037,0.936 -0.187,1.864 -0.445,2.764 1.049,-0.581 1.793,-1.59 2.04,-2.764 z"
               style="fill:#303336;fill-opacity:1;fill-rule:nonzero;stroke:none"
               id="path382" />
          </g>
          <g
             id="g384"
             transform="translate(622.0687,209.4661)">
            <path
               d="m 0,0 h -4.137 c -0.457,0 -0.828,-0.371 -0.828,-0.828 0,-0.457 0.371,-0.827 0.828,-0.827 H 0 c 0.457,0 0.828,0.37 0.828,0.827 C 0.828,-0.371 0.457,0 0,0"
               style="fill:#303336;fill-opacity:1;fill-rule:nonzero;stroke:none"
               id="path386" />
          </g>
          <g
             id="g388"
             transform="translate(622.0687,206.156)">
            <path
               d="m 0,0 h -4.137 c -0.457,0 -0.828,-0.37 -0.828,-0.827 0,-0.457 0.371,-0.828 0.828,-0.828 H 0 c 0.457,0 0.828,0.371 0.828,0.828 C 0.828,-0.37 0.457,0 0,0"
               style="fill:#303336;fill-opacity:1;fill-rule:nonzero;stroke:none"
               id="path390" />
          </g>
          <g
             id="g392"
             transform="translate(622.0687,196.2262)">
            <path
               d="m 0,0 h -4.137 c -0.457,0 -0.828,-0.371 -0.828,-0.828 0,-0.457 0.371,-0.827 0.828,-0.827 H 0 c 0.457,0 0.828,0.37 0.828,0.827 C 0.828,-0.371 0.457,0 0,0"
               style="fill:#303336;fill-opacity:1;fill-rule:nonzero;stroke:none"
               id="path394" />
          </g>
          <g
             id="g396"
             transform="translate(622.0687,192.916)">
            <path
               d="m 0,0 h -4.137 c -0.457,0 -0.828,-0.37 -0.828,-0.827 0,-0.458 0.371,-0.828 0.828,-0.828 H 0 c 0.457,0 0.828,0.371 0.828,0.828 C 0.828,-0.37 0.457,0 0,0"
               style="fill:#303336;fill-opacity:1;fill-rule:nonzero;stroke:none"
               id="path398" />
          </g>
        </g>
      </g>
      <g
         id="g400">
        <g
           id="g402"
           clip-path="url(#clipPath406)">
          <g
             id="g408"
             transform="translate(624.9033,473.662)">
            <path
               d="m 0,0 h -5.461 l 0.787,1.13 C -4.246,0.932 -3.781,0.829 -3.31,0.828 -1.482,0.828 0,2.31 0,4.137 0,5.966 -1.482,7.448 -3.31,7.448 -5.138,7.448 -6.62,5.966 -6.62,4.138 -6.618,3.43 -6.387,2.742 -5.961,2.176 L -7.478,0 h -33.897 c -2.283,-0.002 -4.134,-1.853 -4.137,-4.137 v -27.308 c 0.003,-2.284 1.854,-4.135 4.137,-4.137 h 13.24 v -1.655 h -5.792 c -0.22,0 -0.43,-0.087 -0.585,-0.243 -0.156,-0.155 -0.243,-0.365 -0.243,-0.585 v -3.31 c 0,-0.219 0.087,-0.43 0.243,-0.585 0.155,-0.155 0.365,-0.243 0.585,-0.243 h 26.48 c 0.219,0 0.43,0.088 0.585,0.243 0.155,0.155 0.242,0.366 0.242,0.585 v 3.31 c 0,0.22 -0.087,0.43 -0.242,0.585 -0.155,0.156 -0.365,0.243 -0.585,0.243 h -5.793 v 1.655 H 0 c 2.284,0.002 4.135,1.853 4.138,4.137 V -4.137 C 4.135,-1.853 2.284,-0.002 0,0 m -3.31,5.793 c 0.914,0 1.655,-0.741 1.655,-1.656 0,-0.913 -0.741,-1.654 -1.655,-1.654 -0.914,0 -1.655,0.741 -1.655,1.655 10e-4,0.913 0.742,1.654 1.655,1.655 m -6.837,-18.254 6.01,8.262 v -19.798 h -11.585 v 3.367 c 1.886,0.216 3.585,1.242 4.655,2.81 1.07,1.568 1.406,3.524 0.92,5.359 m 1.872,-28.086 H -33.1 v 1.655 h 24.825 z m -18.205,4.965 h 11.585 v -1.655 H -26.48 Z m 28.962,4.137 C 2.481,-32.815 1.371,-33.926 0,-33.927 h -41.375 c -1.37,10e-4 -2.481,1.112 -2.482,2.482 v 2.483 H 2.482 Z m 0,4.138 h -46.339 v 23.17 c 10e-4,1.37 1.112,2.481 2.482,2.482 h 32.744 l -6.555,-9.405 c -1.169,0.544 -2.549,0.343 -3.514,-0.512 l -5.511,3.815 c 0.138,0.363 0.21,0.748 0.214,1.137 0,1.828 -1.482,3.31 -3.31,3.31 -1.828,0 -3.31,-1.482 -3.31,-3.31 0.003,-0.389 0.075,-0.774 0.214,-1.137 l -5.511,-3.815 c -1.28,1.108 -3.184,1.089 -4.442,-0.043 -1.258,-1.132 -1.476,-3.024 -0.509,-4.412 0.967,-1.389 2.817,-1.841 4.315,-1.054 1.498,0.787 2.176,2.566 1.581,4.151 l 5.511,3.815 c 1.228,-1.087 3.073,-1.087 4.301,0 l 5.511,-3.815 c -0.138,-0.363 -0.211,-0.749 -0.214,-1.138 0,-1.827 1.482,-3.309 3.31,-3.309 1.828,0 3.31,1.482 3.31,3.309 -0.002,0.708 -0.233,1.396 -0.659,1.962 l 7.284,10.451 h 2.282 l -7.375,-10.138 c -0.151,-0.214 -0.191,-0.489 -0.104,-0.737 l -0.014,-0.005 c 0.835,-2.563 -0.531,-5.324 -3.074,-6.217 -2.544,-0.893 -5.335,0.408 -6.287,2.93 -0.012,0.026 -0.026,0.05 -0.041,0.074 -0.013,0.026 -0.027,0.051 -0.042,0.076 -0.025,0.04 -0.053,0.077 -0.084,0.113 -0.018,0.019 -0.037,0.035 -0.056,0.052 -0.034,0.033 -0.072,0.064 -0.111,0.091 l -0.006,0.005 -5.309,3.679 c -0.283,0.196 -0.659,0.197 -0.942,0 l -5.346,-3.699 c -0.136,-0.099 -0.237,-0.237 -0.29,-0.396 l -0.014,0.005 c -0.729,-1.929 -2.575,-3.206 -4.637,-3.21 -0.219,0 -0.429,-0.087 -0.585,-0.243 -0.155,-0.155 -0.242,-0.365 -0.242,-0.585 v -4.965 c 0,-0.219 0.087,-0.43 0.242,-0.585 0.155,-0.155 0.366,-0.242 0.585,-0.242 H -3.31 c 0.219,0 0.43,0.087 0.585,0.242 0.156,0.155 0.243,0.366 0.243,0.585 v 23.17 H 0 c 1.371,-10e-4 2.481,-1.112 2.482,-2.482 z m -17.377,13.24 c 0,-0.915 -0.741,-1.656 -1.655,-1.656 -0.914,0 -1.655,0.741 -1.655,1.656 10e-4,0.913 0.741,1.654 1.655,1.655 0.914,0 1.655,-0.741 1.655,-1.655 m -10.757,7.447 c 0,-0.914 -0.741,-1.655 -1.655,-1.655 -0.914,0.001 -1.654,0.742 -1.656,1.655 0,0.914 0.742,1.655 1.656,1.655 0.914,0 1.655,-0.741 1.655,-1.655 m -10.758,-7.447 c 0,-0.915 -0.741,-1.656 -1.655,-1.656 -0.914,0 -1.655,0.741 -1.655,1.656 0,0.914 0.741,1.655 1.655,1.655 0.914,-10e-4 1.654,-0.742 1.655,-1.655 m 19.032,-6.556 v -3.374 h -9.102 v 10.005 l 3.87,-2.683 c 0.925,-2.148 2.913,-3.648 5.232,-3.948 m -10.757,6.632 v -10.006 h -9.102 v 3.374 c 2.322,0.3 4.313,1.804 5.235,3.956 z"
               style="fill:#303336;fill-opacity:1;fill-rule:nonzero;stroke:none"
               id="path410" />
          </g>
        </g>
      </g>
      <g
         id="g412">
        <g
           id="g414"
           clip-path="url(#clipPath418)">
          <g
             id="g420"
             transform="translate(663.7599,564.7754)">
            <path
               d="m 0,0 c 0,0 -12,0 -12,-12 v -6.653 c 0,0 0,-12 12,-12 h 112.48 c 0,0 12,0 12,12 V -12 c 0,0 0,12 -12,12 z"
               style="fill:#ffffff;fill-opacity:1;fill-rule:nonzero;stroke:none"
               id="path422" />
          </g>
          <g
             id="g424"
             transform="translate(663.7599,564.7754)">
            <path
               d="m 0,0 c 0,0 -12,0 -12,-12 v -6.653 c 0,0 0,-12 12,-12 h 112.48 c 0,0 12,0 12,12 V -12 c 0,0 0,12 -12,12 z"
               style="fill:none;stroke:#274794;stroke-width:1;stroke-linecap:butt;stroke-linejoin:miter;stroke-miterlimit:4;stroke-dasharray:none;stroke-opacity:1"
               id="path426" />
          </g>
        </g>
      </g>
      <text
         transform="matrix(1,0,0,-1,661.1811,546.2197)"
         style="font-variant:normal;font-weight:bold;font-stretch:normal;font-size:9px;font-family:Lato;-inkscape-font-specification:Lato-Bold;writing-mode:lr-tb;fill:#2c2e31;fill-opacity:1;fill-rule:nonzero;stroke:none"
         id="text430">
        <tspan
           x="0 2.826 9.6300001 14.985 20.132999 24.785999 27.612 34.118999 39.266998 46.070999 51.425999 58.23 64.115997 65.852997 71.711998 74.538002 80.091003 86.894997 92.042999"
           y="0"
           id="tspan428">INTELIGENTNY BIZNES</tspan>
      </text>
      <g
         id="g432">
        <g
           id="g434"
           clip-path="url(#clipPath438)">
          <g
             id="g440"
             transform="translate(742.1851,437.9253)">
            <path
               d="m 0,0 c 0,0 -12,0 -12,-12 v -3.819 c 0,0 0,-12 12,-12 h 202.717 c 0,0 12,0 12,12 V -12 c 0,0 0,12 -12,12 z"
               style="fill:#ffffff;fill-opacity:1;fill-rule:nonzero;stroke:none"
               id="path442" />
          </g>
          <g
             id="g444"
             transform="translate(742.1851,437.9253)">
            <path
               d="m 0,0 c 0,0 -12,0 -12,-12 v -3.819 c 0,0 0,-12 12,-12 h 202.717 c 0,0 12,0 12,12 V -12 c 0,0 0,12 -12,12 z"
               style="fill:none;stroke:#274794;stroke-width:1;stroke-linecap:butt;stroke-linejoin:miter;stroke-miterlimit:4;stroke-dasharray:none;stroke-opacity:1"
               id="path446" />
          </g>
        </g>
      </g>
      <text
         transform="matrix(1,0,0,-1,737.7165,420.5504)"
         style="font-variant:normal;font-weight:bold;font-stretch:normal;font-size:9px;font-family:Lato;-inkscape-font-specification:Lato-Bold;writing-mode:lr-tb;fill:#2c2e31;fill-opacity:1;fill-rule:nonzero;stroke:none"
         id="text450">
        <tspan
           x="0 2.826 9.6300001 14.985 20.132999 24.785999 27.612 34.118999 39.266998 46.070999 51.425999 58.23 64.620003 66.357002 75.771004 80.595001 86.220001 93.411003 98.361 103.986 109.881 116.0676 122.0976 128.48759 130.22459 135.7776 137.5146 144.3636 149.3676 156.55859 162.58859 168.1416 173.2896 180.0936 182.9196 188.0676 196.43761"
           y="0"
           id="tspan448">INTELIGENTNA WSPPRACA Z OTOCZENIEM</tspan>
      </text>
      <g
         id="g452">
        <g
           id="g454"
           clip-path="url(#clipPath458)">
          <g
             id="g460"
             transform="translate(707.6968,217.5312)">
            <path
               d="m 0,0 c 0,0 -12,0 -12,-12 v -5.236 c 0,0 0,-12 12,-12 h 89.331 c 0,0 12,0 12,12 V -12 c 0,0 0,12 -12,12 z"
               style="fill:#ffffff;fill-opacity:1;fill-rule:nonzero;stroke:none"
               id="path462" />
          </g>
          <g
             id="g464"
             transform="translate(707.6968,217.5312)">
            <path
               d="m 0,0 c 0,0 -12,0 -12,-12 v -5.236 c 0,0 0,-12 12,-12 h 89.331 c 0,0 12,0 12,12 V -12 c 0,0 0,12 -12,12 z"
               style="fill:none;stroke:#274794;stroke-width:1;stroke-linecap:butt;stroke-linejoin:miter;stroke-miterlimit:4;stroke-dasharray:none;stroke-opacity:1"
               id="path466" />
          </g>
        </g>
      </g>
      <text
         transform="matrix(1,0,0,-1,702.9921,199.448)"
         style="font-variant:normal;font-weight:bold;font-stretch:normal;font-size:9px;font-family:Lato;-inkscape-font-specification:Lato-Bold;writing-mode:lr-tb;fill:#2c2e31;fill-opacity:1;fill-rule:nonzero;stroke:none"
         id="text470">
        <tspan
           x="0 2.826 9.6300001 14.985 20.132999 24.785999 27.612 34.118999 39.266998 46.070999 51.425999 58.23 64.115997 65.852997 72.656998"
           y="0"
           id="tspan468">INTELIGENTNY HR</tspan>
      </text>
    </g>
  </g>
</svg>
